<?xml version="1.0" encoding="UTF-8"?>
<svg width="32px" height="29px" viewBox="0 0 32 29" version="1.1" xmlns="http://www.w3.org/2000/svg" xmlns:xlink="http://www.w3.org/1999/xlink">
    <title>编组 2</title>
    <g id="页面-1" stroke="none" stroke-width="1" fill="none" fill-rule="evenodd">
        <g id="01-一池_h5" transform="translate(-292.000000, -228.000000)" fill-rule="nonzero">
            <g id="编组-2" transform="translate(292.000000, 228.000000)">
                <polygon id="Path" fill="#0F8C20" points="20.4206651 0 23.2173295 4.19475575 28.2206651 5.46211396 27.925098 10.4401402 31.2 14.3 27.925098 18.1598599 28.2206651 23.1378861 23.2173295 24.4052442 20.4206651 28.6 15.6 26.7907688 10.7793349 28.6 7.9826705 24.4052442 2.97933489 23.1378861 3.27490195 18.1598599 0 14.3 3.27490195 10.4401402 2.97933489 5.46211396 7.9826705 4.19475575 10.7793349 0 15.6 1.80923118"></polygon>
                <path d="M13.36,18.358 L15.026,10 L12.842,10 L10.49,11.652 L10,14.13 L12.352,12.478 L11.176,18.358 L13.36,18.358 Z M17.462,18.358 L18.904,16.356 L19.674,18.358 L22.194,18.358 L20.402,14.592 L23.44,10.826 L20.78,10.826 L19.478,12.744 L18.764,10.826 L16.244,10.826 L17.98,14.494 L14.76,18.358 L17.462,18.358 Z" id="1x" fill="#FFFFFF"></path>
            </g>
        </g>
    </g>
</svg>