<?xml version="1.0" encoding="UTF-8"?>
<svg width="20px" height="20px" viewBox="0 0 20 20" version="1.1" xmlns="http://www.w3.org/2000/svg" xmlns:xlink="http://www.w3.org/1999/xlink">
    <title>切片</title>
    <g id="页面-1" stroke="none" stroke-width="1" fill="none" fill-rule="evenodd">
        <g id="最新首页备份-3" transform="translate(-1833.000000, -1400.000000)">
            <g id="编组-39备份-2" transform="translate(1802.000000, 1390.000000)">
                <g id="binance备份-2" transform="translate(31.000000, 10.000000)">
                    <g id="编组-17" fill="#E84142">
                        <rect id="矩形" x="0" y="0" width="20" height="20" rx="3.57142857"></rect>
                    </g>
                    <g id="编组" transform="translate(5.000000, 5.000000)" fill="#FFFFFF">
                        <path d="M2.68981916,9.51224553 L0.887730396,9.51224553 C0.50906844,9.51224553 0.32200507,9.51224553 0.207935739,9.43925149 C0.0847672693,9.35939722 0.00947691823,9.22710091 0.000349075436,9.08111283 C-0.0064824547,8.9465202 0.087034878,8.78227644 0.274098247,8.45378892 L4.72369198,0.610761758 C4.91302295,0.277710311 5.0088366,0.11119894 5.12973746,0.0496003533 C5.25976617,-0.0165334511 5.41488208,-0.0165334511 5.54491079,0.0496003533 C5.66581165,0.11119894 5.7616253,0.277710311 5.95095627,0.610761758 L6.86569242,2.20756017 L6.87037116,2.21571208 L6.87037116,2.21571208 C7.0748578,2.57301833 7.17856502,2.75419739 7.22383108,2.94436079 C7.27400551,3.15194745 7.27400551,3.37092957 7.22383108,3.57851623 C7.17822057,3.77014352 7.07554669,3.95264297 6.86796003,4.31534555 L4.5307156,8.44695739 L4.52465908,8.45754913 C4.31879465,8.81778318 4.21448465,9.00034003 4.06990306,9.13814749 C3.91251953,9.28869949 3.72318855,9.3981762 3.51560189,9.45977478 C3.32627091,9.51224553 3.11412033,9.51224553 2.68981916,9.51224553 Z" id="路径"></path>
                        <path d="M7.24070898,9.51244646 L9.82296996,9.51244646 L9.82296996,9.51244646 C10.2039282,9.51244646 10.3955268,9.51244646 10.5095961,9.43718481 C10.6327646,9.35733054 10.7103226,9.22273791 10.7171828,9.07674983 C10.7237847,8.94660631 10.6322767,8.78870612 10.4529633,8.47933539 C10.4468494,8.46877236 10.4406207,8.4580658 10.4343058,8.44715831 L9.1409077,6.23446015 L9.12618259,6.20957386 C8.94442945,5.90218371 8.85263435,5.74698167 8.73486221,5.68699051 C8.60483351,5.620828 8.4520139,5.620828 8.3219852,5.68699051 C8.20335195,5.74856039 8.1075383,5.91053654 7.91820732,6.23672775 L6.62937314,8.44942592 L6.62495274,8.45706116 C6.43628195,8.7827357 6.34198961,8.94548686 6.34879244,9.07904615 C6.35792028,9.22503422 6.43318193,9.35962685 6.5563791,9.43945242 C6.66815212,9.51244646 6.85975071,9.51244646 7.24070898,9.51244646 Z" id="路径"></path>
                    </g>
                </g>
            </g>
        </g>
    </g>
</svg>