<?xml version="1.0" encoding="UTF-8"?>
<svg width="145px" height="20px" viewBox="0 0 145 20" version="1.1" xmlns="http://www.w3.org/2000/svg" xmlns:xlink="http://www.w3.org/1999/xlink">
    <title>切片</title>
    <g id="页面-1" stroke="none" stroke-width="1" fill="none" fill-rule="evenodd">
        <g id="最新首页备份-3" transform="translate(-609.000000, -394.000000)" fill="#F0B90B" fill-rule="nonzero">
            <g id="编组-37" transform="translate(420.000000, 394.000000)">
                <g id="编组-21" transform="translate(189.000000, 0.000000)">
                    <g id="mainnet.983a5f1b">
                        <path d="M95.3545454,15.0921212 L87.2975758,15.0993939 L87.2975758,4.24242424 L95.2793939,4.24242424 L95.2793939,6.36969697 L89.610303,6.36969697 L89.610303,8.57151516 L94.5987879,8.57151516 L94.5987879,10.6987879 L89.610303,10.6987879 L89.610303,12.9642424 L95.3545454,12.9642424 L95.3545454,15.0915152 L95.3545454,15.0921212 Z M85.4242424,13.5224242 L85.4242424,13.5345454 C84.3345454,14.730303 83.1260606,15.4751515 81.0848485,15.4673346 C77.9715151,15.4673346 75.6587879,12.9987879 75.6587879,9.88303031 L75.6587879,9.85212121 C75.6587879,6.77272727 77.9260606,4.24242424 81.1757576,4.24242424 C83.1715152,4.24242424 84.3648485,4.92545455 85.3466667,5.91939395 L83.8672727,7.66060605 C83.0454546,6.9 82.2181818,6.43393939 81.1606061,6.43393939 C79.3775757,6.43393939 78.0921212,7.95454545 78.0921212,9.81696969 L78.0921212,9.84787879 C78.0921212,11.7127273 79.3472727,13.26 81.1606061,13.26 C82.370303,13.26 83.1115151,12.7612121 83.9424242,11.9872727 L85.4242424,13.5230303 L85.4242424,13.5224242 Z M73.4066667,15.0878788 L71.4309091,15.1 L66.3006061,8.19818182 L66.3006061,15.0993939 L64.0054546,15.0993939 L64.0054546,4.24242424 L66.1539394,4.24242424 L71.1090909,10.9272727 L71.1090909,4.24242424 L73.4066667,4.24242424 L73.4066667,15.0878788 L73.4066667,15.0878788 Z M62.3109091,15.1654546 L59.8775758,15.1775758 L58.9109091,12.7412121 L54.4363636,12.7412121 L53.469697,15.1775758 L51.0963636,15.1775758 L55.629697,4.24242424 L57.7757576,4.24242424 L62.3109091,15.1654546 L62.3109091,15.1654546 Z M58.0793939,10.6218182 L56.6733333,7.09939395 L55.2672727,10.6218182 L58.0793939,10.6218182 Z M49.4169697,15.0884848 L47.4363636,15.0993939 L42.3133333,8.19818182 L42.3133333,15.0993939 L40.0157576,15.0993939 L40.0157576,4.24242424 L42.1624242,4.24242424 L47.1175758,10.9272727 L47.1175758,4.24242424 L49.4169697,4.24242424 L49.4169697,15.0878788 L49.4169697,15.0884848 Z M36.9042424,15.0884848 L34.5763636,15.0993939 L34.5763636,4.24242424 L36.9036364,4.24242424 L36.9036364,15.0878788 L36.9042424,15.0884848 Z M32.0242424,12.1230303 C32.0242424,14.1151515 30.4521212,15.1072727 28.0624242,15.0994405 L23.030303,15.0994405 L23.030303,4.24242424 L27.9418182,4.24242424 C30.1036364,4.24242424 31.4345454,5.34303029 31.4345454,7.04909092 L31.4345454,7.08 C31.4345454,8.30666666 30.7975758,8.98909092 30.0436364,9.42242424 C31.270303,9.90424242 32.0242424,10.6333333 32.0242424,12.0915152 L32.0242424,12.1230303 L32.0242424,12.1230303 Z M29.7115152,11.8230303 L29.7115152,11.8036364 C29.7115152,11.0745454 29.1818182,10.6254546 27.9872727,10.6254546 L25.2969697,10.6254546 L25.2969697,13.0030303 L28.0618182,13.0030303 C29.0909091,13.0030303 29.7109091,12.629697 29.7109091,11.8230303 L29.7115152,11.8230303 Z M29.1218182,7.48060605 L29.1218182,7.46121213 C29.1218182,6.74727273 28.5769697,6.34303031 27.5945454,6.34303031 L25.2975758,6.34303031 L25.2975758,8.62787879 L27.4442424,8.62787879 C28.4715152,8.62787879 29.1218182,8.28727273 29.1218182,7.48060605 L29.1218182,7.48060605 Z M1.91393939,9.98060605 L1.92,13.8430303 L5.20484848,15.7733333 L5.20484848,18.0272727 L0,14.9781818 L0,8.85393939 L1.91393939,9.98121213 L1.91393939,9.98060605 Z M1.91393939,6.11636363 L1.91393939,8.37030303 L0,7.24242424 L0,4.98909092 L1.91393939,3.86424242 L3.82848484,4.98909092 L1.91393939,6.11636363 Z M6.56787879,4.98909092 L8.48363637,3.86424242 L10.3963636,4.98909092 L8.48181818,6.11636363 L6.56787879,4.98909092 Z M3.29030303,13.0375758 L3.29030303,10.7842424 L5.20484848,11.9109091 L5.20484848,14.1648485 L3.29030303,13.0375758 L3.29030303,13.0375758 Z M6.56787879,16.5787879 L8.48181818,17.7060606 L10.3963636,16.5787879 L10.3963636,18.8321212 L8.48181818,19.9593939 L6.56787879,18.8321212 L6.56787879,16.5787879 Z M13.1393939,4.98909092 L15.0533333,3.86424242 L16.9678788,4.98909092 L16.9678788,7.24363637 L15.0533333,8.37030303 L15.0533333,6.11575758 L13.1393939,4.98969697 L13.1393939,4.98909092 Z M15.0533333,13.8436364 L15.0557576,9.98060605 L16.969697,8.85333334 L16.969697,14.9781818 L11.7684848,18.0272727 L11.7684848,15.7733333 L15.0533333,13.8430303 L15.0533333,13.8436364 Z M13.6848485,13.0375758 L11.7709091,14.1648485 L11.7709091,11.910303 L13.6848485,10.7842424 L13.6848485,13.0381818 L13.6848485,13.0375758 Z M13.6848485,6.92181818 L13.6884848,9.17575758 L10.4036364,11.1054546 L10.4036364,14.9781818 L8.48969697,16.1048485 L6.57515152,14.9775758 L6.57515152,11.1054546 L3.29090908,9.17575758 L3.29090908,6.92121213 L5.20545455,5.79454545 L8.48424242,7.72666666 L11.7715152,5.79454545 L13.6854546,6.92181818 L13.6848485,6.92181818 Z M3.29090908,3.05939395 L8.48303031,0 L13.6842424,3.05939395 L11.770303,4.18606061 L8.48303031,2.25393939 L5.20424242,4.18606061 L3.28969697,3.05878787 L3.29090908,3.05939395 Z" id="形状"></path>
                    </g>
                    <path d="M105.0769,15.1086 C106.2242,15.1086 107.2076,14.7808 108.0271,14.1252 C108.9062,13.4249 109.4575,12.4564 109.6959,11.2197 L108.1165,11.2197 C107.9079,12.0541 107.5354,12.6799 106.999,13.0971 C106.4924,13.4845 105.8368,13.6782 105.062,13.6782 C103.87,13.6782 102.9909,13.3057 102.4247,12.5607 C101.8883,11.8604 101.6201,10.877 101.6201,9.5956 C101.6201,8.3589 101.8883,7.3755 102.4396,6.6603 C103.0207,5.8706 103.8849,5.4832 105.0322,5.4832 C105.807,5.4832 106.4328,5.6471 106.9394,5.9898 C107.446,6.3325 107.7887,6.8689 107.9675,7.5841 L109.5469,7.5841 C109.383,6.5113 108.9062,5.6471 108.1314,5.0213 C107.3268,4.3657 106.2987,4.0528 105.062,4.0528 C103.3634,4.0528 102.082,4.6041 101.188,5.7365 C100.3834,6.7348 99.996,8.0162 99.996,9.5956 C99.996,11.2048 100.3685,12.4862 101.1433,13.4398 C102.0224,14.5424 103.3336,15.1086 105.0769,15.1086 Z M112.959,14.9 L112.959,10.132 L118.5316,10.132 L118.5316,14.9 L120.1557,14.9 L120.1557,4.2614 L118.5316,4.2614 L118.5316,8.7463 L112.959,8.7463 L112.959,4.2614 L111.3349,4.2614 L111.3349,14.9 L112.959,14.9 Z M122.9271,14.9 L123.9254,12.1584 L128.4997,12.1584 L129.498,14.9 L131.2413,14.9 L127.1438,4.2614 L125.2962,4.2614 L121.1987,14.9 L122.9271,14.9 Z M128.008,10.8174 L124.4171,10.8174 L126.1902,6.0047 L126.2498,6.0047 L128.008,10.8174 Z M133.9233,14.9 L133.9233,4.2614 L132.3141,4.2614 L132.3141,14.9 L133.9233,14.9 Z M137.6632,14.9 L137.6632,6.8987 L137.7228,6.8987 L143.2209,14.9 L144.8003,14.9 L144.8003,4.2614 L143.1762,4.2614 L143.1762,12.1733 L143.1166,12.1733 L137.6781,4.2614 L136.0391,4.2614 L136.0391,14.9 L137.6632,14.9 Z" id="CHAIN"></path>
                </g>
            </g>
        </g>
    </g>
</svg>