<?xml version="1.0" encoding="UTF-8"?>
<svg width="24px" height="24px" viewBox="0 0 24 24" version="1.1" xmlns="http://www.w3.org/2000/svg" xmlns:xlink="http://www.w3.org/1999/xlink">
    <title>切片</title>
    <g id="westar" stroke="none" stroke-width="1" fill="none" fill-rule="evenodd">
        <g id="H5_首页" transform="translate(-331.000000, -23.000000)" fill="#000000" fill-rule="nonzero">
            <g id="ic/more" transform="translate(331.000000, 23.000000)">
                <g id="􀌂" transform="translate(2.608887, 4.236328)">
                    <path d="M1.20410156,2.39941406 L17.7275391,2.39941406 C18.0556641,2.39941406 18.3369141,2.28369141 18.5712891,2.05224609 C18.8056641,1.82080078 18.9228516,1.53808594 18.9228516,1.20410156 C18.9228516,0.870117188 18.8056641,0.5859375 18.5712891,0.3515625 C18.3369141,0.1171875 18.0556641,0 17.7275391,0 L1.20410156,0 C0.870117188,0 0.5859375,0.1171875 0.3515625,0.3515625 C0.1171875,0.5859375 0,0.870117188 0,1.20410156 C0,1.53808594 0.1171875,1.82080078 0.3515625,2.05224609 C0.5859375,2.28369141 0.870117188,2.39941406 1.20410156,2.39941406 Z M1.20410156,11.1005859 L17.7275391,11.1005859 C18.0556641,11.1005859 18.3369141,10.9848633 18.5712891,10.753418 C18.8056641,10.5219727 18.9228516,10.2392578 18.9228516,9.90527344 C18.9228516,9.57128906 18.8056641,9.28710938 18.5712891,9.05273438 C18.3369141,8.81835938 18.0556641,8.70117188 17.7275391,8.70117188 L1.20410156,8.70117188 C0.870117188,8.70117188 0.5859375,8.81835938 0.3515625,9.05273438 C0.1171875,9.28710938 0,9.57128906 0,9.90527344 C0,10.2392578 0.1171875,10.5219727 0.3515625,10.753418 C0.5859375,10.9848633 0.870117188,11.1005859 1.20410156,11.1005859 Z M8.54296875,6.75 L17.7275391,6.75 C18.0556641,6.75 18.3369141,6.63427734 18.5712891,6.40283203 C18.8056641,6.17138672 18.9228516,5.88867188 18.9228516,5.5546875 C18.9228516,5.22070312 18.8056641,4.93652344 18.5712891,4.70214844 C18.3369141,4.46777344 18.0556641,4.35058594 17.7275391,4.35058594 L8.54296875,4.35058594 C8.20898438,4.35058594 7.92480469,4.46777344 7.69042969,4.70214844 C7.45605469,4.93652344 7.33886719,5.22070312 7.33886719,5.5546875 C7.33886719,5.88867188 7.45605469,6.17138672 7.69042969,6.40283203 C7.92480469,6.63427734 8.20898438,6.75 8.54296875,6.75 Z M8.54296875,15.4511719 L17.7275391,15.4511719 C18.0556641,15.4511719 18.3369141,15.3354492 18.5712891,15.1040039 C18.8056641,14.8725586 18.9228516,14.5898438 18.9228516,14.2558594 C18.9228516,13.921875 18.8056641,13.6376953 18.5712891,13.4033203 C18.3369141,13.1689453 18.0556641,13.0517578 17.7275391,13.0517578 L8.54296875,13.0517578 C8.20898438,13.0517578 7.92480469,13.1689453 7.69042969,13.4033203 C7.45605469,13.6376953 7.33886719,13.921875 7.33886719,14.2558594 C7.33886719,14.5898438 7.45605469,14.8725586 7.69042969,15.1040039 C7.92480469,15.3354492 8.20898438,15.4511719 8.54296875,15.4511719 Z" id="形状"></path>
                </g>
            </g>
        </g>
    </g>
</svg>