<?xml version="1.0" encoding="UTF-8"?>
<svg width="89px" height="20px" viewBox="0 0 89 20" version="1.1" xmlns="http://www.w3.org/2000/svg" xmlns:xlink="http://www.w3.org/1999/xlink">
    <title>切片</title>
    <g id="页面-1" stroke="none" stroke-width="1" fill="none" fill-rule="evenodd">
        <g id="最新首页备份-3" transform="translate(-774.000000, -394.000000)" fill-rule="nonzero">
            <g id="编组-37" transform="translate(420.000000, 394.000000)">
                <g id="polygon-logowhite" transform="translate(354.000000, 0.000000)">
                    <g id="编组" transform="translate(27.020019, 0.000000)" fill="#212121">
                        <path d="M7.68358017,6.32761905 C8.2277862,6.66285714 8.68826822,7.12380952 8.98130224,7.75238095 C9.31619825,8.38095238 9.48364626,9.1352381 9.48364626,9.97333333 C9.48364626,10.8114286 9.31619825,11.5238095 8.93944023,12.152381 C8.60454422,12.7809524 8.10220019,13.2419048 7.47427017,13.5352381 C6.84634014,13.8704762 6.0928241,14.0380952 5.29744606,14.0380952 C4.83696404,14.0380952 4.41834402,13.9542857 3.999724,13.7866667 C3.58110398,13.6609524 3.20434597,13.4095238 2.91131195,13.1161905 L2.91131195,17.4742857 L0.483315841,17.4742857 L0.483315841,5.99238095 L2.57641594,5.99238095 L2.78572595,6.91428571 C3.70668999,6.16 4.71137804,5.78285714 5.75792809,5.78285714 C6.46958212,5.78285714 7.13937415,5.95047619 7.68358017,6.32761905 Z M6.34399611,11.5238095 C6.76261613,11.1466667 6.97192614,10.6438095 6.97192614,10.0152381 C6.97192614,9.38666667 6.76261613,8.88380952 6.38585811,8.4647619 C6.0091001,8.04571429 5.50675607,7.87809524 4.96255005,7.87809524 C4.50206803,7.87809524 4.08344801,7.96190476 3.74855199,8.17142857 C3.41365598,8.33904762 3.16248397,8.63238095 2.95317396,9.00952381 L2.95317396,10.8952381 C3.07875996,11.272381 3.32993197,11.5657143 3.62296599,11.7752381 C3.957862,11.9847619 4.33462002,12.1104762 4.79510204,12.1104762 C5.42303207,12.1104762 5.92537609,11.9009524 6.34399611,11.5238095 Z" id="形状"></path>
                        <path d="M10.9069543,7.79428571 C11.2837123,7.20761905 11.7860564,6.7047619 12.4558484,6.36952381 C13.1256404,6.03428571 13.8791565,5.8247619 14.7163965,5.8247619 C15.5536365,5.8247619 16.3071526,5.99238095 16.9769446,6.36952381 C17.6048746,6.7047619 18.1072187,7.20761905 18.4839767,7.83619048 C18.8607347,8.4647619 19.0281827,9.1352381 19.0281827,9.93142857 C19.0281827,10.727619 18.8607347,11.3980952 18.4839767,12.0266667 C18.1072187,12.6552381 17.6467366,13.1580952 16.9769446,13.4933333 C16.3490146,13.8285714 15.5536365,14.0380952 14.7163965,14.0380952 C13.8791565,14.0380952 13.1256404,13.8704762 12.4558484,13.5352381 C11.7860564,13.2 11.2837123,12.7390476 10.9069543,12.1104762 C10.5720583,11.4819048 10.3627483,10.7695238 10.3627483,9.93142857 C10.3627483,9.1352381 10.5720583,8.42285714 10.9069543,7.79428571 Z M13.3768124,11.44 C13.7117085,11.8590476 14.1721905,12.0266667 14.7163965,12.0266667 C15.2606025,12.0266667 15.7210845,11.8171429 16.0559806,11.44 C16.3908766,11.0628571 16.5583246,10.5180952 16.5583246,9.93142857 C16.5583246,9.30285714 16.3908766,8.8 16.0559806,8.42285714 C15.6792225,8.00380952 15.2606025,7.79428571 14.6745345,7.79428571 C14.1303285,7.79428571 13.7117085,8.00380952 13.3349504,8.38095238 C13.0000544,8.8 12.8326064,9.30285714 12.8326064,9.93142857 C12.8326064,10.5180952 13.0000544,11.0209524 13.3768124,11.44 Z" id="形状"></path>
                        <polygon id="路径" points="22.9632109 0.0419047619 22.9632109 13.8285714 20.5352148 13.8285714 20.5352148 0.0419047619"></polygon>
                        <polygon id="路径" points="32.9263673 6.20190476 27.9866511 17.5161905 25.642379 17.5161905 27.4843071 13.4514286 23.9678989 6.20190476 26.7307911 6.20190476 28.7401672 10.727619 30.7495432 6.20190476"></polygon>
                        <path d="M42.2197318,6.20190476 L42.2197318,13.8285714 C42.2197318,14.5409524 42.0104218,15.2114286 41.5918017,15.7980952 C41.1731817,16.3847619 40.6289757,16.8457143 39.9173217,17.1809524 C39.2056676,17.5161905 38.4521516,17.6838095 37.6149116,17.6838095 C36.9869815,17.6838095 36.4427755,17.6 35.9822935,17.4742857 C35.5218115,17.3066667 35.1450534,17.1390476 34.8520194,16.9714286 C34.5171234,16.7619048 34.1822274,16.5104762 33.8054694,16.1752381 L35.2287775,14.4990476 C35.5636735,14.8342857 35.9404315,15.0857143 36.2753275,15.2533333 C36.6102235,15.4209524 37.0707055,15.5466667 37.5730496,15.5466667 C38.2009796,15.5466667 38.7033236,15.3790476 39.1219436,15.0857143 C39.5405637,14.792381 39.7498737,14.3314286 39.7498737,13.7866667 L39.7498737,12.6971429 C39.4987017,13.0742857 39.1638056,13.4095238 38.6614616,13.6609524 C38.1591176,13.912381 37.5730496,14.0380952 36.9032575,14.0380952 C36.2334655,14.0380952 35.5636735,13.8704762 34.9776054,13.4933333 C34.3915374,13.1580952 33.9310554,12.6552381 33.5542974,12.0266667 C33.2194014,11.3980952 33.0100914,10.727619 33.0100914,9.97333333 C33.0100914,9.21904762 33.1775394,8.50666667 33.5542974,7.87809524 C33.9310554,7.24952381 34.3915374,6.74666667 35.0194674,6.36952381 C35.6055355,5.99238095 36.2334655,5.8247619 36.9032575,5.8247619 C37.5311876,5.8247619 38.0753936,5.90857143 38.5777376,6.07619048 C39.0800816,6.24380952 39.4568397,6.4952381 39.7080117,6.78857143 L39.9591837,6.20190476 L42.2197318,6.20190476 Z M39.7498737,10.8952381 L39.7498737,9.00952381 C39.5824257,8.63238095 39.3312536,8.33904762 38.9544956,8.12952381 C38.5777376,7.92 38.1591176,7.79428571 37.6567736,7.79428571 C37.0707055,7.79428571 36.5683615,8.00380952 36.1497415,8.38095238 C35.7311215,8.75809524 35.5218115,9.26095238 35.5218115,9.88952381 C35.5218115,10.4761905 35.7311215,11.0209524 36.1497415,11.44 C36.5683615,11.8590476 37.0707055,12.0685714 37.6567736,12.0685714 C38.6195996,12.0266667 39.3312536,11.6495238 39.7498737,10.8952381 Z" id="形状"></path>
                        <path d="M44.2291079,7.79428571 C44.6058659,7.16571429 45.1082099,6.7047619 45.7780019,6.32761905 C46.447794,5.99238095 47.20131,5.78285714 48.03855,5.78285714 C48.8757901,5.78285714 49.6293061,5.95047619 50.2990982,6.32761905 C50.9270282,6.66285714 51.4293722,7.16571429 51.8061302,7.79428571 C52.1410262,8.42285714 52.3503362,9.09333333 52.3503362,9.88952381 C52.3503362,10.6857143 52.1828882,11.3561905 51.8061302,11.9847619 C51.4712342,12.6133333 50.9688902,13.1161905 50.2990982,13.4514286 C49.6711681,13.7866667 48.8757901,13.9961905 48.03855,13.9961905 C47.20131,13.9961905 46.447794,13.8285714 45.7780019,13.4933333 C45.1082099,13.1580952 44.6058659,12.6971429 44.2291079,12.0685714 C43.8523499,11.44 43.6849018,10.727619 43.6849018,9.84761905 C43.6849018,9.1352381 43.8523499,8.42285714 44.2291079,7.79428571 Z M46.657104,11.44 C46.992,11.8590476 47.452482,12.0266667 47.996688,12.0266667 C48.5408941,12.0266667 49.0013761,11.8171429 49.3362721,11.44 C49.6711681,11.0628571 49.8386161,10.5180952 49.8386161,9.93142857 C49.8386161,9.30285714 49.6711681,8.8 49.3362721,8.42285714 C49.0013761,8.04571429 48.5408941,7.83619048 47.996688,7.83619048 C47.452482,7.83619048 47.033862,8.04571429 46.657104,8.42285714 C46.280346,8.8 46.112898,9.3447619 46.112898,9.93142857 C46.15476,10.5180952 46.322208,11.0209524 46.657104,11.44 Z" id="形状"></path>
                        <path d="M60.9320466,6.45333333 C61.4343907,6.87238095 61.6437007,7.41714286 61.6855627,8.08761905 L61.6855627,13.8285714 L59.2157046,13.8285714 L59.2157046,9.00952381 C59.1738426,8.2552381 58.7970845,7.87809524 58.0854305,7.87809524 C57.5412245,7.87809524 57.0807425,8.12952381 56.7458465,8.67428571 C56.4109504,9.21904762 56.2435024,9.88952381 56.2435024,10.6857143 L56.2435024,13.8285714 L53.8155063,13.8285714 L53.8155063,6.20190476 L56.0341924,6.20190476 L56.2016404,7.41714286 C56.4946744,6.91428571 56.8714325,6.53714286 57.3737765,6.24380952 C57.8761205,5.95047619 58.4621885,5.8247619 59.1319806,5.8247619 C59.8436346,5.8247619 60.4715646,6.03428571 60.9320466,6.45333333 Z" id="路径"></path>
                    </g>
                    <path d="M17.1215588,6.07619048 C16.7029388,5.8247619 16.1587328,5.8247619 15.6982507,6.07619048 L12.4330146,8.00380952 L10.2143285,9.26095238 L6.94909232,11.1885714 C6.5304723,11.44 5.98626628,11.44 5.52578426,11.1885714 L2.93034014,9.68 C2.51172012,9.42857143 2.2186861,8.96761905 2.2186861,8.4647619 L2.2186861,5.48952381 C2.2186861,4.98666667 2.46985811,4.52571429 2.93034014,4.27428571 L5.48392225,2.80761905 C5.90254227,2.55619048 6.4467483,2.55619048 6.90723032,2.80761905 L9.46081244,4.27428571 C9.87943246,4.52571429 10.1724665,4.98666667 10.1724665,5.48952381 L10.1724665,7.41714286 L12.3911526,6.11809524 L12.3911526,4.19047619 C12.3911526,3.68761905 12.1399806,3.22666667 11.6794985,2.9752381 L6.94909232,0.20952381 C6.5304723,-0.0419047619 5.98626628,-0.0419047619 5.52578426,0.20952381 L0.711654033,2.9752381 C0.251172012,3.22666667 -8.87272115e-13,3.68761905 -8.87272115e-13,4.19047619 L-8.87272115e-13,9.76380952 C-8.87272115e-13,10.2666667 0.251172012,10.727619 0.711654033,10.9790476 L5.52578426,13.7447619 C5.94440428,13.9961905 6.4886103,13.9961905 6.94909232,13.7447619 L10.2143285,11.8590476 L12.4330146,10.56 L15.6982507,8.67428571 C16.1168707,8.42285714 16.6610768,8.42285714 17.1215588,8.67428571 L19.6751409,10.1409524 C20.0937609,10.392381 20.3867949,10.8533333 20.3867949,11.3561905 L20.3867949,14.3314286 C20.3867949,14.8342857 20.1356229,15.2952381 19.6751409,15.5466667 L17.1215588,17.0552381 C16.7029388,17.3066667 16.1587328,17.3066667 15.6982507,17.0552381 L13.1446686,15.5885714 C12.7260486,15.3371429 12.4330146,14.8761905 12.4330146,14.3733333 L12.4330146,12.4457143 L10.2143285,13.7447619 L10.2143285,15.672381 C10.2143285,16.1752381 10.4655005,16.6361905 10.9259825,16.887619 L15.7401127,19.6533333 C16.1587328,19.9047619 16.7029388,19.9047619 17.1634208,19.6533333 L21.977551,16.887619 C22.396171,16.6361905 22.6892051,16.1752381 22.6892051,15.672381 L22.6892051,10.0990476 C22.6892051,9.59619048 22.438033,9.1352381 21.977551,8.88380952 L17.1215588,6.07619048 Z" id="路径" fill="#8247E5"></path>
                </g>
            </g>
        </g>
    </g>
</svg>