<?xml version="1.0" encoding="utf-8"?>
<!-- Generator: Adobe Illustrator 24.1.0, SVG Export Plug-In . SVG Version: 6.00 Build 0)  -->
<svg version="1.1" id="图层_1" xmlns="http://www.w3.org/2000/svg" xmlns:xlink="http://www.w3.org/1999/xlink" x="0px" y="0px"
	 viewBox="0 0 32 32" style="enable-background:new 0 0 32 32;" xml:space="preserve">
<style type="text/css">
	.st0{fill:#FF0000;}
	.st1{fill:#FFFFFF;}
</style>
<g id="_x31_0X">
	<polygon id="Path" class="st0" points="20.4,2 23.2,6.2 28.2,7.5 27.9,12.4 31.2,16.3 27.9,20.2 28.2,25.1 23.2,26.4 20.4,30.6 
		15.6,28.8 10.8,30.6 8,26.4 3,25.1 3.3,20.2 0,16.3 3.3,12.4 3,7.5 8,6.2 10.8,2 15.6,3.8 	"/>
	<path id="形状" class="st1" d="M15.2,12c1.6,0,2.5,1.2,2.5,2.6c0,0.1,0,0.4,0,0.6l0,0.1l-0.4,2.3c-0.4,2.4-1.8,3.3-3.2,3.3
		c-1.6,0-2.5-1.2-2.5-2.6c0-0.1,0-0.4,0-0.6l0-0.1l0.4-2.3C12.4,12.8,13.8,12,15.2,12z M10.7,12.1l-1.5,8.7h-2l1.1-6.1L6,16.4
		l0.5-2.6l2.2-1.7H10.7z M21.6,12.3l0.8,2.5l1.7-2.5h2.3l-3.2,4.2l1.7,4.3h-2.2l-0.9-2.7l-1.9,2.7h-2.3l3.4-4.4l-1.6-4.1H21.6z
		 M15,14.1c-0.4,0-0.8,0.2-1,0.9l0,0.2l-0.4,2.5c0,0.1-0.1,0.3-0.1,0.5c0,0.6,0.4,0.8,0.7,0.8c0.4,0,0.8-0.2,1-0.9l0-0.2l0.4-2.5
		c0-0.1,0.1-0.3,0.1-0.5C15.7,14.2,15.3,14.1,15,14.1z"/>
</g>
</svg>
