<?xml version="1.0" encoding="utf-8"?>
<!-- Generator: Adobe Illustrator 24.1.0, SVG Export Plug-In . SVG Version: 6.00 Build 0)  -->
<svg version="1.1" id="图层_1" xmlns="http://www.w3.org/2000/svg" xmlns:xlink="http://www.w3.org/1999/xlink" x="0px" y="0px"
	 viewBox="0 0 32 32" style="enable-background:new 0 0 32 32;" xml:space="preserve">
<style type="text/css">
	.st0{fill:#FF6400;}
	.st1{fill:#FFFFFF;}
</style>
<g id="_x32_.5X">
	<polygon id="Path" class="st0" points="20.4,2 23.2,6.2 28.2,7.5 27.9,12.4 31.2,16.3 27.9,20.2 28.2,25.1 23.2,26.4 20.4,30.6 
		15.6,28.8 10.8,30.6 8,26.4 3,25.1 3.3,20.2 0,16.3 3.3,12.4 3,7.5 8,6.2 10.8,2 15.6,3.8 	"/>
	<path id="_x32_.5x" class="st1" d="M9.4,19.5l0.3-1.7H7l1.2-0.9c1.5-1.1,2.1-1.8,2.1-2.7C10.3,13,9.5,12,8,12
		c-1.7,0-2.8,0.9-3.1,2.5h1.9c0.2-0.7,0.6-0.9,0.9-0.9c0.4,0,0.6,0.3,0.6,0.6c0,0.4-0.2,0.6-1.1,1.3l-2.9,2.2L4,19.5H9.4z M12,19.5
		c0.7,0,1.2-0.5,1.2-1.2s-0.5-1.2-1.2-1.2c-0.7,0-1.2,0.5-1.2,1.2S11.3,19.5,12,19.5z M16.8,19.9c1,0,1.6-0.3,2.1-0.7
		c0.6-0.5,0.9-1.3,1-1.9c0-0.2,0.1-0.5,0.1-0.7c0-0.9-0.6-1.8-2-1.8c-0.4,0-0.7,0.1-1.1,0.3l0.3-1.2h3.2l0.3-1.5h-4.9l-1,4.4h1.7
		c0.1-0.2,0.4-0.5,0.9-0.5c0.5,0,0.6,0.3,0.6,0.6c0,0.1,0,0.3-0.1,0.5c-0.2,0.7-0.5,1.1-1,1.1c-0.5,0-0.6-0.3-0.6-0.6
		c0-0.1,0-0.1,0-0.2h-1.8c0,0.2,0,0.4,0,0.5C14.5,19.2,15.4,19.9,16.8,19.9z M22.3,19.5l1.2-1.7l0.7,1.7h2.2l-1.5-3.2l2.6-3.2h-2.3
		l-1.1,1.6L23.5,13h-2.2l1.5,3.1L20,19.5H22.3z"/>
</g>
</svg>
