<?xml version="1.0" encoding="utf-8"?>
<!-- Generator: Adobe Illustrator 24.1.0, SVG Export Plug-In . SVG Version: 6.00 Build 0)  -->
<svg version="1.1" id="图层_1" xmlns="http://www.w3.org/2000/svg" xmlns:xlink="http://www.w3.org/1999/xlink" x="0px" y="0px"
	 viewBox="0 0 32 32" style="enable-background:new 0 0 32 32;" xml:space="preserve">
<style type="text/css">
	.st0{fill:#FF5000;}
	.st1{fill:#FFFFFF;}
</style>
<g id="_x34_X">
	<polygon id="Path" class="st0" points="20.4,2 23.2,6.2 28.2,7.5 27.9,12.4 31.2,16.3 27.9,20.2 28.2,25.1 23.2,26.4 20.4,30.6 
		15.6,28.8 10.8,30.6 8,26.4 3,25.1 3.3,20.2 0,16.3 3.3,12.4 3,7.5 8,6.2 10.8,2 15.6,3.8 	"/>
	<path id="形状结合" class="st1" d="M18.6,12.8l0.8,2.5l1.7-2.5h2.3L20.2,17l1.7,4.3h-2.2l-0.9-2.7l-1.9,2.7h-2.3l3.4-4.4
		l-1.6-4.1H18.6z M14.1,12l-3.7,5.6h1.5l0.3-1.4H14l-0.3,1.4h0.9l-0.3,1.8h-0.8L13,21.3h-1.8l0.4-1.9H8l0.3-1.8l3.7-5.6H14.1z"/>
</g>
</svg>
