<?xml version="1.0" encoding="utf-8"?>
<!-- Generator: Adobe Illustrator 24.1.0, SVG Export Plug-In . SVG Version: 6.00 Build 0)  -->
<svg version="1.1" id="图层_1" xmlns="http://www.w3.org/2000/svg" xmlns:xlink="http://www.w3.org/1999/xlink" x="0px" y="0px"
	 viewBox="0 0 32 32" style="enable-background:new 0 0 32 32;" xml:space="preserve">
<style type="text/css">
	.st0{fill:#FF3200;}
	.st1{fill:#FFFFFF;}
</style>
<g id="_x35_x">
	<polygon id="Path" class="st0" points="20.4,2 23.2,6.2 28.2,7.5 27.9,12.4 31.2,16.3 27.9,20.2 28.2,25.1 23.2,26.4 20.4,30.6 
		15.6,28.8 10.8,30.6 8,26.4 3,25.1 3.3,20.2 0,16.3 3.3,12.4 3,7.5 8,6.2 10.8,2 15.6,3.8 	"/>
	<path id="形状结合" class="st1" d="M18.6,12.2l0.8,2.5l1.7-2.5h2.3l-3.2,4.2l1.7,4.3h-2.2L18.8,18L17,20.7h-2.3l3.4-4.4
		l-1.6-4.1H18.6z M15.2,12l-0.3,1.7h-3.2l-0.3,1.4c0.3-0.2,0.7-0.3,1.1-0.3c1.4,0,2,1,2,2c0,0.2,0,0.6-0.1,0.8
		c-0.1,0.7-0.4,1.6-1,2.2c-0.5,0.5-1.1,0.8-2.1,0.8c-1.4,0-2.3-0.9-2.3-2.1c0-0.1,0-0.3,0-0.5l0,0h1.8c0,0.1,0,0.2,0,0.2
		c0,0.4,0.1,0.7,0.6,0.7c0.6,0,0.9-0.5,1-1.3c0-0.3,0.1-0.4,0.1-0.6c0-0.4-0.1-0.7-0.6-0.7c-0.5,0-0.8,0.3-0.9,0.6l0,0H9.3l1-5H15.2
		z"/>
</g>
</svg>
