<?xml version="1.0" encoding="UTF-8"?>
<svg width="50px" height="50px" viewBox="0 0 50 50" version="1.1" xmlns="http://www.w3.org/2000/svg" xmlns:xlink="http://www.w3.org/1999/xlink">
    <title>HUSD</title>
    <defs>
        <path d="M23.9361702,16.5744681 L23.9361702,23.1276596 L29.0851064,23.1276596 C31.1606343,23.3089497 32.8297872,24.9859098 32.8297872,26.8723404 L32.8297872,33.4255319 L29.5531915,33.4255319 L29.5531915,26.8723404 L24.4042553,26.8723404 C22.3287274,26.7744941 20.6595745,25.0975339 20.6595745,23.1276596 L20.6595745,16.5744681 L23.9361702,16.5744681 Z M20.6595745,27.8085106 C22.4691883,27.8085106 23.9361702,29.261864 23.9361702,31.0851064 L23.9361702,33.4255319 L20.6595745,33.4255319 L20.6595745,27.8085106 Z M32.8297872,16.5744681 L32.8297872,22.1914894 C31.0201734,22.1914894 29.5531915,20.738136 29.5531915,18.9148936 L29.5531915,16.5744681 L32.8297872,16.5744681 Z" id="path-1"></path>
        <filter x="-4.1%" y="-3.0%" width="108.2%" height="111.9%" filterUnits="objectBoundingBox" id="filter-2">
            <feOffset dx="0" dy="1" in="SourceAlpha" result="shadowOffsetOuter1"></feOffset>
            <feColorMatrix values="0 0 0 0 0.826681386   0 0 0 0 0.31593131   0 0 0 0 0.24680724  0 0 0 1 0" type="matrix" in="shadowOffsetOuter1"></feColorMatrix>
        </filter>
    </defs>
    <g id="HUSD" stroke="none" stroke-width="1" fill="none" fill-rule="evenodd">
        <g id="编组-14">
            <path d="M23,47 C35.1503169,47 45,37.1503169 45,25 C45,12.8496831 35.1503169,3 23,3 C10.8498099,3 1,12.8496831 1,25 C1,37.1503169 10.8498099,47 23,47 Z" id="Path" fill="#EA6F57" fill-rule="nonzero"></path>
            <path d="M26.7446809,47 C38.8949977,47 48.7446809,37.1503169 48.7446809,25 C48.7446809,12.8496831 38.8949977,3 26.7446809,3 C14.5944907,3 4.74468085,12.8496831 4.74468085,25 C4.74468085,37.1503169 14.5944907,47 26.7446809,47 Z" id="Path" fill="#FFBA5F" fill-rule="nonzero"></path>
            <path d="M26.7446809,41.3829787 C35.7927613,41.3829787 43.1276596,34.0480804 43.1276596,25 C43.1276596,15.9519196 35.7927613,8.61702128 26.7446809,8.61702128 C17.6966004,8.61702128 10.3617021,15.9519196 10.3617021,25 C10.3617021,34.0480804 17.6966004,41.3829787 26.7446809,41.3829787 Z" id="Path" fill="#F79D52" fill-rule="nonzero"></path>
            <g id="形状">
                <use fill="black" fill-opacity="1" filter="url(#filter-2)" xlink:href="#path-1"></use>
                <use fill="#E25D4B" fill-rule="evenodd" xlink:href="#path-1"></use>
            </g>
            <rect id="矩形" x="0" y="0" width="50" height="50"></rect>
        </g>
    </g>
</svg>