<?xml version="1.0" encoding="UTF-8"?>
<svg width="50px" height="50px" viewBox="0 0 50 50" version="1.1" xmlns="http://www.w3.org/2000/svg" xmlns:xlink="http://www.w3.org/1999/xlink">
    <title>HUSD</title>
    <defs>
        <path d="M22.9361702,13.5744681 L22.9361702,20.1276596 L28.0851064,20.1276596 C30.1606343,20.3089497 31.8297872,21.9859098 31.8297872,23.8723404 L31.8297872,30.4255319 L28.5531915,30.4255319 L28.5531915,23.8723404 L23.4042553,23.8723404 C21.3287274,23.7744941 19.6595745,22.0975339 19.6595745,20.1276596 L19.6595745,13.5744681 L22.9361702,13.5744681 Z M19.6595745,24.8085106 C21.4691883,24.8085106 22.9361702,26.261864 22.9361702,28.0851064 L22.9361702,30.4255319 L19.6595745,30.4255319 L19.6595745,24.8085106 Z M31.8297872,13.5744681 L31.8297872,19.1914894 C30.0201734,19.1914894 28.5531915,17.738136 28.5531915,15.9148936 L28.5531915,13.5744681 L31.8297872,13.5744681 Z" id="path-1"></path>
        <filter x="-4.1%" y="-3.0%" width="108.2%" height="111.9%" filterUnits="objectBoundingBox" id="filter-2">
            <feOffset dx="0" dy="1" in="SourceAlpha" result="shadowOffsetOuter1"></feOffset>
            <feColorMatrix values="0 0 0 0 0.826681386   0 0 0 0 0.31593131   0 0 0 0 0.24680724  0 0 0 1 0" type="matrix" in="shadowOffsetOuter1"></feColorMatrix>
        </filter>
    </defs>
    <g id="HUSD" stroke="none" stroke-width="1" fill="none" fill-rule="evenodd">
        <g id="编组-5">
            <g id="编组-14" transform="translate(1.000000, 3.000000)">
                <path d="M22,44 C34.1503169,44 44,34.1503169 44,22 C44,9.84968314 34.1503169,0 22,0 C9.84980989,0 0,9.84968314 0,22 C0,34.1503169 9.84980989,44 22,44 Z" id="Path" fill="#EA6F57" fill-rule="nonzero"></path>
                <path d="M25.7446809,44 C37.8949977,44 47.7446809,34.1503169 47.7446809,22 C47.7446809,9.84968314 37.8949977,0 25.7446809,0 C13.5944907,0 3.74468085,9.84968314 3.74468085,22 C3.74468085,34.1503169 13.5944907,44 25.7446809,44 Z" id="Path" fill="#FFBA5F" fill-rule="nonzero"></path>
                <path d="M25.7446809,38.3829787 C34.7927613,38.3829787 42.1276596,31.0480804 42.1276596,22 C42.1276596,12.9519196 34.7927613,5.61702128 25.7446809,5.61702128 C16.6966004,5.61702128 9.36170213,12.9519196 9.36170213,22 C9.36170213,31.0480804 16.6966004,38.3829787 25.7446809,38.3829787 Z" id="Path" fill="#F79D52" fill-rule="nonzero"></path>
                <g id="形状">
                    <use fill="black" fill-opacity="1" filter="url(#filter-2)" xlink:href="#path-1"></use>
                    <use fill="#E25D4B" fill-rule="evenodd" xlink:href="#path-1"></use>
                </g>
            </g>
            <rect id="矩形" x="0" y="0" width="50" height="50"></rect>
        </g>
    </g>
</svg>