<?xml version="1.0" encoding="UTF-8"?>
<svg width="86px" height="50px" viewBox="0 0 86 50" version="1.1" xmlns="http://www.w3.org/2000/svg" xmlns:xlink="http://www.w3.org/1999/xlink">
    <title>WAR_MDX</title>
    <defs>
        <path d="M19.6919992,15.0744358 L19.9309539,15.0799418 L20.1689909,15.0961772 L20.4057574,15.1227185 L20.6433044,15.1611127 C21.3530732,15.2956173 22.0344512,15.6028317 22.6188326,16.0506279 L22.8099398,16.2050559 L27.2749256,20.0955198 L27.4822487,20.2659225 L27.6185163,20.387969 L27.8818742,20.5942633 L28.1251764,20.7926343 C28.8633062,21.4140529 29.2916086,21.9987851 29.3325935,23.3305047 L29.3358348,23.5470981 L29.3296603,23.7763864 C29.2722452,24.8410595 28.8174052,25.8272599 28.0906217,26.5783668 L27.9307657,26.7356628 L27.7632351,26.8854139 C26.9646949,27.5662608 25.9344151,27.9924212 24.7772354,28.0462166 L24.5273642,28.0520019 L24.2826229,28.0462166 C23.1461909,27.9924212 22.0934553,27.5662608 21.291748,26.8854139 L21.1238568,26.7356628 L20.9640008,26.5786878 C20.2372173,25.8304777 19.7823773,24.8653532 19.7249621,23.7812023 L19.7187876,23.5470981 L19.721873,23.3271313 C19.7605523,21.9887521 20.1623687,21.4146961 20.8972075,20.7588942 L21.1544466,20.5361054 L21.4361061,20.3002978 L21.8107207,19.978519 L23.9027596,21.7335319 L23.6935188,21.9014586 L23.3096023,22.2308649 L23.1982071,22.3225278 C22.8042038,22.6491515 22.5702468,22.8823075 22.5339901,23.3764709 L22.5290318,23.5179803 L22.5355228,23.6741323 C22.5699755,24.0855416 22.7402499,24.4557361 23.0145237,24.7547908 L23.1221891,24.8635431 L23.2516374,24.9750164 C23.5640797,25.2221177 23.9478909,25.3768834 24.3735784,25.4117139 L24.5584938,25.4192178 L24.7434686,25.4117139 C25.16927,25.3768834 25.5530314,25.2221177 25.8654594,24.9750164 L25.9949044,24.8635431 L26.1025441,24.7547908 C26.3767645,24.4557361 26.5471008,24.0855416 26.5815679,23.6741323 L26.5880617,23.5179803 L26.582876,23.3725907 C26.5525066,22.9691568 26.3892118,22.7597561 26.10531,22.5136803 L25.8699623,22.318642 L25.7328847,22.1959683 L20.8124724,18.0591804 C20.5999097,17.8945568 20.3600273,17.7875361 20.1155916,17.7273911 L19.9685659,17.6968434 L19.8195705,17.6788664 C19.5683435,17.6605498 19.3033794,17.6997513 19.0362159,17.7858593 L18.8757461,17.843068 L18.7208888,17.9202651 C18.4723552,18.052477 18.271631,18.203859 18.1187163,18.3957112 L18.0327047,18.5158494 L17.9581277,18.6431104 C17.8434035,18.8584869 17.7765274,19.090942 17.7574221,19.3510487 L17.7516908,19.5105155 L17.814056,30.4212428 L17.5642777,30.4212428 L17.4092328,30.4169496 C16.1265245,30.3457299 15.0867139,29.3968041 15.008626,28.1971266 L15.0039177,28.0520019 L15.002564,19.2923773 C15.0190738,18.576764 15.2409017,17.9042647 15.5981285,17.3078767 L15.722123,17.1119449 L15.8437403,16.9389225 C16.3062398,16.313942 16.9502702,15.7954823 17.7516908,15.473827 C18.3101714,15.2309046 18.8812984,15.1073126 19.4489699,15.0802102 L19.6919992,15.0744358 Z M29.4707299,15.0745417 L29.7298779,15.0807156 C30.2488314,15.1054104 30.7710829,15.204182 31.2849739,15.3769411 L31.5411687,15.4694858 L31.7766411,15.5775722 C32.4728259,15.9147569 33.0742887,16.3676765 33.509988,16.9202669 L33.6489842,17.1081331 L33.776046,17.2959169 C34.1401853,17.8716594 34.3502564,18.5559586 34.3886292,19.2687839 L34.3950367,19.507339 L34.3301304,28.0511548 L34.3219017,28.1963375 C34.2151144,29.3964905 33.1618786,30.345707 31.83168,30.4169483 L31.6707696,30.4212428 L31.411356,30.4212428 L31.4762623,19.507339 L31.481008,19.3673667 C31.4762068,19.1003204 31.391718,18.862499 31.265143,18.6424497 L31.1844484,18.5124611 L31.0831501,18.3907502 C30.9147333,18.2020201 30.7158826,18.042778 30.4865298,17.9224122 L30.3087949,17.8395738 L30.1420784,17.7823204 C29.8645334,17.6961398 29.5893576,17.6568813 29.3283974,17.6752333 L29.1736219,17.6932433 L29.020931,17.7237966 C28.7670769,17.7839586 28.5179537,17.8910272 28.2972151,18.0556137 L28.1683674,18.1613527 L27.5845278,18.6587916 L27.2927139,18.9514526 L25.1198862,17.1959103 L26.2874595,16.2010324 L26.485956,16.0465517 C27.1603591,15.5488413 27.958998,15.2248476 28.7845014,15.1184832 C28.9359142,15.0989301 29.0881271,15.0859183 29.2409831,15.0794163 L29.4707299,15.0745417 Z" id="path-1"></path>
        <filter x="-2.6%" y="-3.3%" width="105.2%" height="113.0%" filterUnits="objectBoundingBox" id="filter-2">
            <feOffset dx="0" dy="1" in="SourceAlpha" result="shadowOffsetOuter1"></feOffset>
            <feColorMatrix values="0 0 0 0 0.130339297   0 0 0 0 0.505557954   0 0 0 0 0.711928216  0 0 0 1 0" type="matrix" in="shadowOffsetOuter1"></feColorMatrix>
        </filter>
        <path d="M4.94948267,0.14 L5.14597385,0.194744384 L5.50637309,0.412466289 L5.64632767,0.561074664 L9.18856,7.30984 L9.298,7.1016 L6.17184146,1.14492934 L6.77888493,0.14 L13.8403364,0.14 L14.4473799,1.14492934 L11.3196,7.1016 L11.42904,7.31136 L14.9725508,0.561139418 L15.1126627,0.412391839 L15.4733708,0.194669934 L15.6697387,0.14 L19.9278138,0.14 L20.5352942,1.14484738 L13.9736269,13.6476947 L12.7334722,13.6476947 L10.3088,9.02744 L7.88576153,13.6476947 L6.6452804,13.6476947 L0.0839710222,1.14492171 L0.691009886,0.14 L4.94948267,0.14 Z M4.34128,1.92904 L2.51728,1.92904 L7.26576,10.97456 L9.1384,7.40712 L7.21915085,7.40787759 L4.34128,1.92904 Z M18.10032,1.92904 L16.27632,1.92904 L13.4020037,7.40787759 L11.4792,7.40712 L13.35184,10.97456 L18.10032,1.92904 Z M12.01272,1.92904 L8.6064,1.92904 L10.3088,5.17576 L12.01272,1.92904 Z" id="path-3"></path>
        <filter x="-2.4%" y="-3.7%" width="104.9%" height="114.8%" filterUnits="objectBoundingBox" id="filter-4">
            <feOffset dx="0" dy="1" in="SourceAlpha" result="shadowOffsetOuter1"></feOffset>
            <feColorMatrix values="0 0 0 0 0.0588235294   0 0 0 0 0.549019608   0 0 0 0 0.125490196  0 0 0 1 0" type="matrix" in="shadowOffsetOuter1"></feColorMatrix>
        </filter>
    </defs>
    <g id="WAR_MDX" stroke="none" stroke-width="1" fill="none" fill-rule="evenodd">
        <g id="编组" transform="translate(37.000000, 3.000000)">
            <g id="编组-9" fill-rule="nonzero">
                <path d="M22,44 C34.1503169,44 44,34.1503169 44,22 C44,9.84968314 34.1503169,0 22,0 C9.84980989,0 0,9.84968314 0,22 C0,34.1503169 9.84980989,44 22,44 Z" id="Path备份" fill="#4CA9DC"></path>
                <path d="M25.7446809,44 C37.8949977,44 47.7446809,34.1503169 47.7446809,22 C47.7446809,9.84968314 37.8949977,0 25.7446809,0 C13.5944907,0 3.74468085,9.84968314 3.74468085,22 C3.74468085,34.1503169 13.5944907,44 25.7446809,44 Z" id="Path备份-2" fill="#69C6FA"></path>
                <path d="M25.3829787,38.7659574 C34.4310592,38.7659574 41.7659574,31.4310592 41.7659574,22.3829787 C41.7659574,13.3348983 34.4310592,6 25.3829787,6 C16.3348983,6 9,13.3348983 9,22.3829787 C9,31.4310592 16.3348983,38.7659574 25.3829787,38.7659574 Z" id="Path备份-3" fill="#2990C9" opacity="0.6"></path>
            </g>
            <g id="形状">
                <use fill="black" fill-opacity="1" filter="url(#filter-2)" xlink:href="#path-1"></use>
                <use fill="#FFFFFF" fill-rule="evenodd" xlink:href="#path-1"></use>
            </g>
        </g>
        <g id="编组-5" transform="translate(2.000000, 0.000000)">
            <g id="编组-10">
                <rect id="矩形" x="0" y="0" width="50" height="50"></rect>
                <path d="M23,47 C35.1503169,47 45,37.1503169 45,25 C45,12.8496831 35.1503169,3 23,3 C10.8498099,3 1,12.8496831 1,25 C1,37.1503169 10.8498099,47 23,47 Z" id="Path" fill="#1B902B" fill-rule="nonzero"></path>
                <path d="M26.7446809,47 C38.8949977,47 48.7446809,37.1503169 48.7446809,25 C48.7446809,12.8496831 38.8949977,3 26.7446809,3 C14.5944907,3 4.74468085,12.8496831 4.74468085,25 C4.74468085,37.1503169 14.5944907,47 26.7446809,47 Z" id="Path" fill="#32CF47" fill-rule="nonzero"></path>
                <path d="M26.3829787,41.7659574 C35.4310592,41.7659574 42.7659574,34.4310592 42.7659574,25.3829787 C42.7659574,16.3348983 35.4310592,9 26.3829787,9 C17.3348983,9 10,16.3348983 10,25.3829787 C10,34.4310592 17.3348983,41.7659574 26.3829787,41.7659574 Z" id="Path" fill="#18AD2C" fill-rule="nonzero"></path>
            </g>
            <g id="形状" transform="translate(16.000000, 19.000000)">
                <use fill="black" fill-opacity="1" filter="url(#filter-4)" xlink:href="#path-3"></use>
                <use fill="#FFFFFF" fill-rule="evenodd" xlink:href="#path-3"></use>
            </g>
        </g>
    </g>
</svg>