<?xml version="1.0" encoding="UTF-8"?>
<svg width="86px" height="50px" viewBox="0 0 86 50" version="1.1" xmlns="http://www.w3.org/2000/svg" xmlns:xlink="http://www.w3.org/1999/xlink">
    <title>WAR_HUSDT</title>
    <defs>
        <path d="M22.9361702,13.5744681 L22.9361702,20.1276596 L28.0851064,20.1276596 C30.1606343,20.3089497 31.8297872,21.9859098 31.8297872,23.8723404 L31.8297872,30.4255319 L28.5531915,30.4255319 L28.5531915,23.8723404 L23.4042553,23.8723404 C21.3287274,23.7744941 19.6595745,22.0975339 19.6595745,20.1276596 L19.6595745,13.5744681 L22.9361702,13.5744681 Z M19.6595745,24.8085106 C21.4691883,24.8085106 22.9361702,26.261864 22.9361702,28.0851064 L22.9361702,30.4255319 L19.6595745,30.4255319 L19.6595745,24.8085106 Z M31.8297872,13.5744681 L31.8297872,19.1914894 C30.0201734,19.1914894 28.5531915,17.738136 28.5531915,15.9148936 L28.5531915,13.5744681 L31.8297872,13.5744681 Z" id="path-1"></path>
        <filter x="-4.1%" y="-3.0%" width="108.2%" height="111.9%" filterUnits="objectBoundingBox" id="filter-2">
            <feOffset dx="0" dy="1" in="SourceAlpha" result="shadowOffsetOuter1"></feOffset>
            <feColorMatrix values="0 0 0 0 0.826681386   0 0 0 0 0.31593131   0 0 0 0 0.24680724  0 0 0 1 0" type="matrix" in="shadowOffsetOuter1"></feColorMatrix>
        </filter>
        <path d="M4.94948267,0.14 L5.14597385,0.194744384 L5.50637309,0.412466289 L5.64632767,0.561074664 L9.18856,7.30984 L9.298,7.1016 L6.17184146,1.14492934 L6.77888493,0.14 L13.8403364,0.14 L14.4473799,1.14492934 L11.3196,7.1016 L11.42904,7.31136 L14.9725508,0.561139418 L15.1126627,0.412391839 L15.4733708,0.194669934 L15.6697387,0.14 L19.9278138,0.14 L20.5352942,1.14484738 L13.9736269,13.6476947 L12.7334722,13.6476947 L10.3088,9.02744 L7.88576153,13.6476947 L6.6452804,13.6476947 L0.0839710222,1.14492171 L0.691009886,0.14 L4.94948267,0.14 Z M4.34128,1.92904 L2.51728,1.92904 L7.26576,10.97456 L9.1384,7.40712 L7.21915085,7.40787759 L4.34128,1.92904 Z M18.10032,1.92904 L16.27632,1.92904 L13.4020037,7.40787759 L11.4792,7.40712 L13.35184,10.97456 L18.10032,1.92904 Z M12.01272,1.92904 L8.6064,1.92904 L10.3088,5.17576 L12.01272,1.92904 Z" id="path-3"></path>
        <filter x="-2.4%" y="-3.7%" width="104.9%" height="114.8%" filterUnits="objectBoundingBox" id="filter-4">
            <feOffset dx="0" dy="1" in="SourceAlpha" result="shadowOffsetOuter1"></feOffset>
            <feColorMatrix values="0 0 0 0 0.0588235294   0 0 0 0 0.549019608   0 0 0 0 0.125490196  0 0 0 1 0" type="matrix" in="shadowOffsetOuter1"></feColorMatrix>
        </filter>
    </defs>
    <g id="WAR_HUSDT" stroke="none" stroke-width="1" fill="none" fill-rule="evenodd">
        <g id="编组-5" transform="translate(36.000000, 0.000000)">
            <g id="编组-14" transform="translate(1.000000, 3.000000)">
                <path d="M22,44 C34.1503169,44 44,34.1503169 44,22 C44,9.84968314 34.1503169,0 22,0 C9.84980989,0 0,9.84968314 0,22 C0,34.1503169 9.84980989,44 22,44 Z" id="Path" fill="#EA6F57" fill-rule="nonzero"></path>
                <path d="M25.7446809,44 C37.8949977,44 47.7446809,34.1503169 47.7446809,22 C47.7446809,9.84968314 37.8949977,0 25.7446809,0 C13.5944907,0 3.74468085,9.84968314 3.74468085,22 C3.74468085,34.1503169 13.5944907,44 25.7446809,44 Z" id="Path" fill="#FFBA5F" fill-rule="nonzero"></path>
                <path d="M25.7446809,38.3829787 C34.7927613,38.3829787 42.1276596,31.0480804 42.1276596,22 C42.1276596,12.9519196 34.7927613,5.61702128 25.7446809,5.61702128 C16.6966004,5.61702128 9.36170213,12.9519196 9.36170213,22 C9.36170213,31.0480804 16.6966004,38.3829787 25.7446809,38.3829787 Z" id="Path" fill="#F79D52" fill-rule="nonzero"></path>
                <g id="形状">
                    <use fill="black" fill-opacity="1" filter="url(#filter-2)" xlink:href="#path-1"></use>
                    <use fill="#E25D4B" fill-rule="evenodd" xlink:href="#path-1"></use>
                </g>
            </g>
            <rect id="矩形" x="0" y="0" width="50" height="50"></rect>
        </g>
        <g id="编组-5" transform="translate(2.000000, 0.000000)">
            <g id="编组-10">
                <rect id="矩形" x="0" y="0" width="50" height="50"></rect>
                <path d="M23,47 C35.1503169,47 45,37.1503169 45,25 C45,12.8496831 35.1503169,3 23,3 C10.8498099,3 1,12.8496831 1,25 C1,37.1503169 10.8498099,47 23,47 Z" id="Path" fill="#1B902B" fill-rule="nonzero"></path>
                <path d="M26.7446809,47 C38.8949977,47 48.7446809,37.1503169 48.7446809,25 C48.7446809,12.8496831 38.8949977,3 26.7446809,3 C14.5944907,3 4.74468085,12.8496831 4.74468085,25 C4.74468085,37.1503169 14.5944907,47 26.7446809,47 Z" id="Path" fill="#32CF47" fill-rule="nonzero"></path>
                <path d="M26.3829787,41.7659574 C35.4310592,41.7659574 42.7659574,34.4310592 42.7659574,25.3829787 C42.7659574,16.3348983 35.4310592,9 26.3829787,9 C17.3348983,9 10,16.3348983 10,25.3829787 C10,34.4310592 17.3348983,41.7659574 26.3829787,41.7659574 Z" id="Path" fill="#18AD2C" fill-rule="nonzero"></path>
            </g>
            <g id="形状" transform="translate(16.000000, 19.000000)">
                <use fill="black" fill-opacity="1" filter="url(#filter-4)" xlink:href="#path-3"></use>
                <use fill="#FFFFFF" fill-rule="evenodd" xlink:href="#path-3"></use>
            </g>
        </g>
    </g>
</svg>