<?xml version="1.0" encoding="UTF-8"?>
<svg width="50px" height="50px" viewBox="0 0 50 50" version="1.1" xmlns="http://www.w3.org/2000/svg" xmlns:xlink="http://www.w3.org/1999/xlink">
    <title>WAR</title>
    <defs>
        <path d="M4.94948267,0.14 L5.14597385,0.194744384 L5.50637309,0.412466289 L5.64632767,0.561074664 L9.18856,7.30984 L9.298,7.1016 L6.17184146,1.14492934 L6.77888493,0.14 L13.8403364,0.14 L14.4473799,1.14492934 L11.3196,7.1016 L11.42904,7.31136 L14.9725508,0.561139418 L15.1126627,0.412391839 L15.4733708,0.194669934 L15.6697387,0.14 L19.9278138,0.14 L20.5352942,1.14484738 L13.9736269,13.6476947 L12.7334722,13.6476947 L10.3088,9.02744 L7.88576153,13.6476947 L6.6452804,13.6476947 L0.0839710222,1.14492171 L0.691009886,0.14 L4.94948267,0.14 Z M4.34128,1.92904 L2.51728,1.92904 L7.26576,10.97456 L9.1384,7.40712 L7.21915085,7.40787759 L4.34128,1.92904 Z M18.10032,1.92904 L16.27632,1.92904 L13.4020037,7.40787759 L11.4792,7.40712 L13.35184,10.97456 L18.10032,1.92904 Z M12.01272,1.92904 L8.6064,1.92904 L10.3088,5.17576 L12.01272,1.92904 Z" id="path-1"></path>
        <filter x="-2.4%" y="-3.7%" width="104.9%" height="114.8%" filterUnits="objectBoundingBox" id="filter-2">
            <feOffset dx="0" dy="1" in="SourceAlpha" result="shadowOffsetOuter1"></feOffset>
            <feColorMatrix values="0 0 0 0 0.0588235294   0 0 0 0 0.549019608   0 0 0 0 0.125490196  0 0 0 1 0" type="matrix" in="shadowOffsetOuter1"></feColorMatrix>
        </filter>
    </defs>
    <g id="WAR" stroke="none" stroke-width="1" fill="none" fill-rule="evenodd">
        <g id="编组-5">
            <g id="编组-10">
                <rect id="矩形" x="0" y="0" width="50" height="50"></rect>
                <path d="M23,47 C35.1503169,47 45,37.1503169 45,25 C45,12.8496831 35.1503169,3 23,3 C10.8498099,3 1,12.8496831 1,25 C1,37.1503169 10.8498099,47 23,47 Z" id="Path" fill="#1B902B" fill-rule="nonzero"></path>
                <path d="M26.7446809,47 C38.8949977,47 48.7446809,37.1503169 48.7446809,25 C48.7446809,12.8496831 38.8949977,3 26.7446809,3 C14.5944907,3 4.74468085,12.8496831 4.74468085,25 C4.74468085,37.1503169 14.5944907,47 26.7446809,47 Z" id="Path" fill="#32CF47" fill-rule="nonzero"></path>
                <path d="M26.3829787,41.7659574 C35.4310592,41.7659574 42.7659574,34.4310592 42.7659574,25.3829787 C42.7659574,16.3348983 35.4310592,9 26.3829787,9 C17.3348983,9 10,16.3348983 10,25.3829787 C10,34.4310592 17.3348983,41.7659574 26.3829787,41.7659574 Z" id="Path" fill="#18AD2C" fill-rule="nonzero"></path>
            </g>
            <g id="形状" transform="translate(16.000000, 19.000000)">
                <use fill="black" fill-opacity="1" filter="url(#filter-2)" xlink:href="#path-1"></use>
                <use fill="#FFFFFF" fill-rule="evenodd" xlink:href="#path-1"></use>
            </g>
        </g>
    </g>
</svg>