<?xml version="1.0" encoding="utf-8"?>
<!-- Generator: Adobe Illustrator 25.1.0, SVG Export Plug-In . SVG Version: 6.00 Build 0)  -->
<svg version="1.1" id="图层_1" xmlns="http://www.w3.org/2000/svg" xmlns:xlink="http://www.w3.org/1999/xlink" x="0px" y="0px"
	 viewBox="0 0 1920 35" style="enable-background:new 0 0 1920 35;" xml:space="preserve">
<style type="text/css">
	.st0{fill-rule:evenodd;clip-rule:evenodd;fill:#FFFFFF;}
</style>
<g id="控件">
	<path id="形状" class="st0" d="M1.6,14.4c44.9-3.1,87.6,1.1,128,12.7l1.4,0.4c18.8,5.5,35.9,7.5,51.4,7.6L0,35V14.5L1.6,14.4z
		 M1920,14.5V35L183.4,35c15.2,0,28.9-2,41.1-4.6l1.9-0.4c1-0.2,1.9-0.4,2.8-0.6l1.9-0.4c0.3-0.1,0.6-0.1,0.9-0.2l1.8-0.4l2.8-0.7
		l2.8-0.7l2.2-0.6l2.1-0.6l7.2-1.9l3-0.8l1.9-0.5l1.9-0.5c2.1-0.5,4.2-1,6.2-1.5l1-0.2l1.8-0.4l1.8-0.4l0.9-0.2l1.9-0.4l1.9-0.4
		l1.9-0.4l1-0.2l2.5-0.4l3.1-0.5l2.6-0.4l2.1-0.3l2.2-0.3l2.2-0.3l2.8-0.4l0.6-0.1l2.3-0.3c1.7-0.2,3.5-0.4,5.2-0.6l1.8-0.2l2.4-0.3
		c1.8-0.2,3.7-0.4,5.5-0.5l1.9-0.2l2.5-0.2l2.6-0.2l2.6-0.2l2.5-0.2l2.5-0.1c19.7-1.1,41.7-0.8,65.6,1.7l1.5,0.2l11.5,1.3l6.7,0.7
		l6.8,0.7l5.2,0.5l5.2,0.5l3.5,0.3l3.5,0.3l3.5,0.3l3.5,0.3l3.5,0.3l2.7,0.2l2.7,0.2l2.7,0.2c0.4,0,0.9,0.1,1.3,0.1l2.7,0.2
		c0.4,0,0.9,0.1,1.3,0.1l2.7,0.2c0.4,0,0.9,0.1,1.3,0.1l2.7,0.2l2.7,0.1l2.7,0.1l2.7,0.1l2.7,0.1c0.4,0,0.9,0,1.3,0.1l2.7,0.1
		c28.9,0.9,57.4-0.6,82.3-7.2l2.7-0.7c50.6-13.4,132.2-13.4,174.2,5.8l2.5,1.2c42,19.1,122.5,15.2,160.6-5.9l2.3-1.3
		c37.9-20.9,107.8-13.4,139.9-3.6l1.9,0.6c32.5,9.8,120.6,19.3,160.8,4.2l1.2-0.5l1.2-0.5c40.1-15.3,122.4-13.4,154.8,3l1.9,1
		c32.7,16.3,129.3,18.3,157.2,3l0.8-0.5l0.8-0.5C1554,4.3,1653.5-5.3,1700,14.5C1731,27.6,1804.4,27.6,1920,14.5z"/>
</g>
</svg>
