<?xml version="1.0" encoding="UTF-8"?>
<svg width="56px" height="56px" viewBox="0 0 56 56" version="1.1" xmlns="http://www.w3.org/2000/svg" xmlns:xlink="http://www.w3.org/1999/xlink">
    <title>切片</title>
    <defs>
        <rect id="path-1" x="0" y="0" width="56" height="56" rx="6"></rect>
        <mask id="mask-2" maskContentUnits="userSpaceOnUse" maskUnits="objectBoundingBox" x="0" y="0" width="56" height="56" fill="white">
            <use xlink:href="#path-1"></use>
        </mask>
    </defs>
    <g id="页面-1" stroke="none" stroke-width="1" fill="none" fill-rule="evenodd">
        <g id="IWO_apply_Create" transform="translate(-944.000000, -300.000000)">
            <g id="编组-2" transform="translate(944.000000, 300.000000)">
                <use id="矩形" stroke="#00C57B" mask="url(#mask-2)" stroke-width="6" stroke-linejoin="round" stroke-dasharray="8,2" xlink:href="#path-1"></use>
                <path d="M28,18 C29.1045695,18 30,18.8954305 30,20 L30,26 L36,26 C37.1045695,26 38,26.8954305 38,28 C38,29.1045695 37.1045695,30 36,30 L30,30 L30,36 C30,37.1045695 29.1045695,38 28,38 C26.8954305,38 26,37.1045695 26,36 L26,30 L20,30 C18.8954305,30 18,29.1045695 18,28 C18,26.8954305 18.8954305,26 20,26 L26,26 L26,20 C26,18.8954305 26.8954305,18 28,18 Z" id="形状结合" fill="#00C57B"></path>
            </g>
        </g>
    </g>
</svg>