<?xml version="1.0" encoding="UTF-8"?>
<svg width="24px" height="24px" viewBox="0 0 24 24" version="1.1" xmlns="http://www.w3.org/2000/svg" xmlns:xlink="http://www.w3.org/1999/xlink">
    <title>切片</title>
    <g id="页面-1" stroke="none" stroke-width="1" fill="none" fill-rule="evenodd">
        <g id="IWO_apply" transform="translate(-898.000000, -376.000000)">
            <g id="编组-4" transform="translate(898.000000, 376.000000)">
                <rect id="矩形" x="0" y="0" width="24" height="24"></rect>
                <g id="discord备份" transform="translate(4.000000, 3.000000)" fill="#00C57B" fill-rule="nonzero">
                    <path d="M16.6250025,19 L14.583,17.2 L13.432,16.13 L12.215,15 L12.715,16.759 L1.94701,16.759 C0.86863,16.7551 -0.00275,15.8784 3.46157755e-06,14.8 L3.46157755e-06,1.957 C-0.00165,0.87939 0.86941,0.00386 1.94701,0 L14.678,0 C15.7556,0.00386 16.6267,0.87939 16.6250025,1.957 L16.6250025,19 Z M12.1,10.508 C11.6784,11.0735 11.0713,11.4728 10.385,11.636 C10.667,11.996 11.007,12.403 11.01,12.407 C12.1571,12.4312 13.2433,11.8917 13.917,10.963 C13.8825,9.0377 13.4149,7.1449 12.549,5.425 C11.7866,4.82677 10.8586,4.47763 9.891,4.425 L9.88,4.425 L9.747,4.577 C10.6113,4.80915 11.4173,5.22 12.113,5.783 C11.2278,5.29641 10.2565,4.98665 9.253,4.871 C8.6152,4.80017 7.9713,4.80654 7.335,4.89 C7.29,4.89089 7.2452,4.89557 7.201,4.904 L7.173,4.904 C6.42736,4.98985 5.69982,5.19232 5.01701,5.504 C4.67501,5.661 4.46501,5.775 4.45601,5.779 C4.44701,5.783 4.45601,5.779 4.45601,5.772 C5.1939,5.19164 6.04518,4.7723 6.95501,4.541 L6.85501,4.427 L6.84901,4.427 C5.88141,4.47976 4.95344,4.82888 4.19101,5.427 C3.32192,7.1457 2.85417,9.0393 2.82301,10.965 C3.48835,11.8999 4.57601,12.4415 5.72301,12.409 C5.72301,12.409 6.08101,11.973 6.36001,11.62 C5.69101,11.4519 5.10153,11.0558 4.69301,10.5 C4.70001,10.505 4.79901,10.572 4.95901,10.66 C4.96976,10.6726 4.98305,10.6829 4.99801,10.69 C5.01068,10.6988 5.02406,10.7065 5.03801,10.713 C5.05383,10.7202 5.0689,10.7289 5.08301,10.739 C5.30612,10.862 5.53771,10.9689 5.77601,11.059 C6.22909,11.2384 6.69774,11.3756 7.176,11.469 C7.5948,11.5479 8.0199,11.5881 8.446,11.589 C8.8455,11.589 9.2442,11.5521 9.637,11.479 C10.1101,11.3959 10.5721,11.259 11.014,11.071 C11.3958,10.9242 11.76,10.7353 12.1,10.508 Z M10.062,10.081 C9.6269,10.1189 9.2132,9.8859 9.0201,9.4942 C8.8271,9.1025 8.8942,8.6324 9.1893,8.3104 C9.4844,7.9885 9.9469,7.8807 10.3539,8.039 C10.7609,8.1973 11.029,8.5893 11.029,9.026 C11.051,9.5839 10.6188,10.0551 10.061,10.081 L10.062,10.081 Z M6.59401,10.081 C6.04686,10.0333 5.62697,9.5752 5.62697,9.026 C5.62697,8.4768 6.04686,8.0187 6.59401,7.971 C6.84606,7.9718 7.087,8.0746 7.262,8.256 C7.4606,8.4621 7.5686,8.7389 7.562,9.025 C7.5852,9.5839 7.1518,10.0561 6.59301,10.081 L6.59401,10.081 Z" id="形状"></path>
                </g>
            </g>
        </g>
    </g>
</svg>