<?xml version="1.0" encoding="UTF-8"?>
<svg width="24px" height="24px" viewBox="0 0 24 24" version="1.1" xmlns="http://www.w3.org/2000/svg" xmlns:xlink="http://www.w3.org/1999/xlink">
    <title>切片</title>
    <g id="页面-1" stroke="none" stroke-width="1" fill="none" fill-rule="evenodd">
        <g id="IWO_apply" transform="translate(-758.000000, -602.000000)">
            <g id="编组-5" transform="translate(758.000000, 602.000000)">
                <rect id="矩形" x="0" y="0" width="24" height="24"></rect>
                <g id="编组-4" transform="translate(4.000000, 4.000000)">
                    <circle id="椭圆形" fill="#C9D7D1" cx="8" cy="8" r="8"></circle>
                    <path d="M9.5,7 L9.5,11 L10,11 L10,12 L7,12 L7,11 L7.5,11 L7.5,9 L7,9 L7,7 L9.5,7 Z M8.5,4 C9.05228475,4 9.5,4.44771525 9.5,5 C9.5,5.55228475 9.05228475,6 8.5,6 C7.94771525,6 7.5,5.55228475 7.5,5 C7.5,4.44771525 7.94771525,4 8.5,4 Z" id="形状结合" fill="#FFFFFF"></path>
                </g>
            </g>
        </g>
    </g>
</svg>