<?xml version="1.0" encoding="UTF-8"?>
<svg width="24px" height="24px" viewBox="0 0 24 24" version="1.1" xmlns="http://www.w3.org/2000/svg" xmlns:xlink="http://www.w3.org/1999/xlink">
    <title>切片</title>
    <g id="页面-1" stroke="none" stroke-width="1" fill="none" fill-rule="evenodd">
        <g id="IWO_apply" transform="translate(-956.000000, -376.000000)">
            <g id="telegram-fill" transform="translate(956.000000, 376.000000)">
                <polygon id="路径" points="0 0 24 0 24 24 0 24"></polygon>
                <path d="M12,22 C6.477,22 2,17.523 2,12 C2,6.477 6.477,2 12,2 C17.523,2 22,6.477 22,12 C22,17.523 17.523,22 12,22 Z M8.89,13.17 L8.903,13.163 L9.773,16.033 C9.885,16.344 10.039,16.4 10.226,16.374 C10.414,16.349 10.513,16.248 10.636,16.13 L11.824,14.982 L14.374,16.87 C14.84,17.127 15.175,16.994 15.291,16.438 L16.948,8.616 C17.131,7.888 16.811,7.596 16.246,7.828 L6.513,11.588 C5.849,11.854 5.853,12.226 6.393,12.391 L8.89,13.171 L8.89,13.17 Z" id="形状" fill="#00C57B" fill-rule="nonzero"></path>
            </g>
        </g>
    </g>
</svg>