<?xml version="1.0" encoding="UTF-8"?>
<svg width="24px" height="24px" viewBox="0 0 24 24" version="1.1" xmlns="http://www.w3.org/2000/svg" xmlns:xlink="http://www.w3.org/1999/xlink">
    <title>切片</title>
    <g id="页面-1" stroke="none" stroke-width="1" fill="none" fill-rule="evenodd">
        <g id="IWO_apply" transform="translate(-843.000000, -376.000000)">
            <g id="编组-4" transform="translate(843.000000, 376.000000)">
                <rect id="矩形" x="0" y="0" width="24" height="24"></rect>
                <g id="Twitter备份" transform="translate(1.000000, 3.000000)" fill="#00C57B" fill-rule="nonzero">
                    <path d="M18.995,2.68799 C19.8914,2.15208 20.5622,1.30823 20.882,0.31399 C20.0397,0.81379 19.118,1.16587 18.157,1.35499 C16.8246,-0.05448 14.7135,-0.39749 13.0034,0.51764 C11.2933,1.43277 10.4075,3.37948 10.841,5.26999 C7.39062,5.09676 4.17598,3.4669 1.99702,0.78599 C0.85986,2.74741 1.44097,5.25477 3.32502,6.516 C2.64373,6.4941 1.97754,6.3096 1.38202,5.97799 C1.38202,5.99599 1.38202,6.014 1.38202,6.032 C1.38241,8.0751 2.82239,9.8351 4.82502,10.24 C4.19308,10.4119 3.53022,10.4372 2.88702,10.314 C3.45022,12.0613 5.06057,13.2583 6.89602,13.294 C5.37585,14.4871 3.49849,15.1342 1.56602,15.131 C1.22349,15.1315 0.88123,15.1118 0.54102,15.072 C2.50341,16.333 4.78739,17.0023 7.12002,17 C10.3653,17.0223 13.484,15.7429 15.7787,13.448 C18.0734,11.1531 19.3526,8.0342 19.33,4.78899 C19.33,4.60299 19.3257,4.41799 19.317,4.23399 C20.1575,3.62659 20.8828,2.87414 21.459,2.01199 C20.676,2.35905 19.8455,2.58691 18.995,2.68799 Z" id="路径"></path>
                </g>
            </g>
        </g>
    </g>
</svg>