<?xml version="1.0" encoding="UTF-8"?>
<svg width="366px" height="266px" viewBox="0 0 366 266" version="1.1" xmlns="http://www.w3.org/2000/svg" xmlns:xlink="http://www.w3.org/1999/xlink">
    <title>ill</title>
    <g id="ill" stroke="none" stroke-width="1" fill="none" fill-rule="evenodd" stroke-opacity="0.2">
        <path d="M89.2063574,23 L97.0675461,27.7599885 L159.390919,146.735773 L132.000271,146.735773 L79.909307,47.3104664 L37.6496043,47.3104664 L130.373746,224.407396 L171.800111,145.282201 L115.252152,37.2877062 L123.863029,23 L247.136649,23 L255.747525,37.2877062 L199.193973,145.282201 L240.620339,224.407396 L333.34448,47.3104664 L291.079185,47.3104664 L239.033554,146.735773 L211.632136,146.735773 L273.926556,27.7596319 L281.793891,23 L357.382588,23 L366,37.2871017 L249.385858,260 L231.866025,260 L185.497042,171.438642 L139.133743,260 L121.608188,260 L5,37.2876499 L13.6108425,23 L89.2063574,23 Z M223.092294,47.3104664 L147.901791,47.3104664 L185.497042,119.120155 L223.092294,47.3104664 Z" id="形状" stroke="#00C57B" stroke-width="8"></path>
    </g>
</svg>