<?xml version="1.0" encoding="UTF-8"?>
<svg width="24px" height="24px" viewBox="0 0 24 24" version="1.1" xmlns="http://www.w3.org/2000/svg" xmlns:xlink="http://www.w3.org/1999/xlink">
    <title>切片</title>
    <g id="页面-1" stroke="none" stroke-width="1" fill="none" fill-rule="evenodd">
        <g id="IWO_apply" transform="translate(-788.000000, -376.000000)">
            <g id="编组-3" transform="translate(788.000000, 376.000000)">
                <rect id="矩形" x="0" y="0" width="24" height="24"></rect>
                <g id="link_02备份" transform="translate(3.000000, 3.000000)" fill="#00C57B" fill-rule="nonzero">
                    <path d="M5.46492,17.5350193 C3.44276,17.5350193 1.6197,16.3169 0.84572,14.4487 C0.07175,12.5805 0.49925,10.4301 1.92892,9 L4.05092,6.87799 L5.46492,8.292 L3.34392,10.413 C2.58598,11.1709 2.28997,12.2756 2.5674,13.311 C2.84482,14.3464 3.65354,15.1551 4.6889,15.4325 C5.72426,15.7099 6.82898,15.4139 7.5869,14.656 L9.7079,12.535 L11.1219,13.95 L9.0009,16.071 C8.065,17.0115 6.79178,17.5387 5.46492,17.5350193 Z M6.17192,13.242 L4.75792,11.828 L11.8289,4.75699 L13.2429,6.17099 L6.17292,13.241 L6.17192,13.242 Z M13.9509,11.121 L12.5359,9.707 L14.6569,7.586 C15.4252,6.83032 15.7291,5.72065 15.4532,4.67897 C15.1772,3.63729 14.3637,2.82364 13.3221,2.54743 C12.2805,2.27123 11.1708,2.57491 10.4149,3.34299 L8.2929,5.46399 L6.87892,4.04999 L9.0009,1.92799 C10.956,-0.01004 14.1099,-0.00314 16.0565,1.94344 C18.0031,3.89002 18.01,7.0439 16.0719,8.999 L13.9509,11.12 L13.9509,11.121 Z" id="形状"></path>
                </g>
            </g>
        </g>
    </g>
</svg>