<?xml version="1.0" encoding="utf-8"?>
<!-- Generator: Adobe Illustrator 24.1.0, SVG Export Plug-In . SVG Version: 6.00 Build 0)  -->
<svg version="1.1" id="图层_1" xmlns="http://www.w3.org/2000/svg" xmlns:xlink="http://www.w3.org/1999/xlink" x="0px" y="0px"
	 viewBox="0 0 32 32" style="enable-background:new 0 0 32 32;" xml:space="preserve">
<style type="text/css">
	.st0{fill:#0F8C20;}
	.st1{fill:#FFFFFF;}
</style>
<g id="_x31_x">
	<polygon id="Path" class="st0" points="20.4,2 23.2,6.2 28.2,7.5 27.9,12.4 31.2,16.3 27.9,20.2 28.2,25.1 23.2,26.4 20.4,30.6 
		15.6,28.8 10.8,30.6 8,26.4 3,25.1 3.3,20.2 0,16.3 3.3,12.4 3,7.5 8,6.2 10.8,2 15.6,3.8 	"/>
	<path class="st1" d="M13.4,20.4L15,12h-2.2l-2.4,1.7L10,16.1l2.4-1.7l-1.2,5.9H13.4z M17.5,20.4l1.4-2l0.8,2h2.5l-1.8-3.8l3-3.8
		h-2.7l-1.3,1.9l-0.7-1.9h-2.5l1.7,3.7l-3.2,3.9H17.5z"/>
</g>
</svg>
