<?xml version="1.0" encoding="utf-8"?>
<!-- Generator: Adobe Illustrator 24.1.0, SVG Export Plug-In . SVG Version: 6.00 Build 0)  -->
<svg version="1.1" id="图层_1" xmlns="http://www.w3.org/2000/svg" xmlns:xlink="http://www.w3.org/1999/xlink" x="0px" y="0px"
	 viewBox="0 0 32 32" style="enable-background:new 0 0 32 32;" xml:space="preserve">
<style type="text/css">
	.st0{fill:#FF9600;}
	.st1{fill:#FFFFFF;}
</style>
<g id="_x32_X">
	<polygon id="Path" class="st0" points="20.4,2 23.2,6.2 28.2,7.5 27.9,12.4 31.2,16.3 27.9,20.2 28.2,25.1 23.2,26.4 20.4,30.6 
		15.6,28.8 10.8,30.6 8,26.4 3,25.1 3.3,20.2 0,16.3 3.3,12.4 3,7.5 8,6.2 10.8,2 15.6,3.8 	"/>
	<path class="st1" d="M13.7,20.5l0.4-1.9h-3l1.3-1c1.6-1.3,2.2-2,2.2-3c0-1.4-0.8-2.5-2.4-2.5c-1.8,0-2.9,1-3.2,2.9h2
		c0.2-0.8,0.6-1,1-1c0.5,0,0.7,0.3,0.7,0.7c0,0.5-0.2,0.7-1.2,1.5l-3.1,2.5L8,20.5H13.7z M17.3,20.5l1.9-2.7l0.9,2.7h2.2l-1.7-4.3
		l3.2-4.2h-2.3l-1.7,2.5L19,12h-2.2l1.6,4.1L15,20.5H17.3z"/>
</g>
</svg>
