<?xml version="1.0" encoding="UTF-8"?>
<svg width="148px" height="30px" viewBox="0 0 148 30" version="1.1" xmlns="http://www.w3.org/2000/svg" xmlns:xlink="http://www.w3.org/1999/xlink">
    <title>切片</title>
    <g id="westar" stroke="none" stroke-width="1" fill="none" fill-rule="evenodd">
        <g transform="translate(-1197.000000, -921.000000)" fill="#000000" id="ava">
            <g transform="translate(1197.000000, 921.000000)">
                <path d="M39.8804769,9.73518462 L41.4830308,9.73518462 L45.9672923,20.1444923 L43.8501231,20.1444923 L42.8797846,17.7627231 L38.3661231,17.7627231 L37.4251846,20.1444923 L35.3521385,20.1444923 L39.8804769,9.73518462 Z M42.2328462,16.1748462 L40.6302923,11.9405538 L38.9983385,16.1748462 L42.2328462,16.1748462 Z" id="形状" fill-rule="nonzero"></path>
                <polygon id="路径" fill-rule="nonzero" points="47.9543077 9.73518462 50.0861538 9.73518462 52.9236923 17.601 55.8493846 9.73518462 57.8492308 9.73518462 53.6441538 20.1444923 52.0416923 20.1444923"></polygon>
                <path d="M64.4695385,9.73518462 L66.0724615,9.73518462 L70.5563077,20.1444923 L68.4392308,20.1444923 L67.4690769,17.7627231 L62.9552308,17.7627231 L62.0141538,20.1444923 L59.9413846,20.1444923 L64.4695385,9.73518462 Z M66.822,16.1748462 L65.2195385,11.9405538 L63.5875385,16.1748462 L66.822,16.1748462 Z" id="形状" fill-rule="nonzero"></path>
                <polygon id="路径" fill-rule="nonzero" points="74.6538462 9.73518462 76.5064615 9.73518462 76.5064615 18.4684154 80.9316923 18.4684154 80.9316923 20.1444923 74.6538462 20.1444923"></polygon>
                <path d="M88.5849231,9.73518462 L90.1878462,9.73518462 L94.6716923,20.1444923 L92.5546154,20.1444923 L91.5844615,17.7627231 L87.0706154,17.7627231 L86.13,20.1444923 L84.0567692,20.1444923 L88.5849231,9.73518462 Z M90.9373846,16.1748462 L89.3349231,11.9405538 L87.7029231,16.1748462 L90.9373846,16.1748462 Z" id="形状" fill-rule="nonzero"></path>
                <polygon id="路径" fill-rule="nonzero" points="98.7692308 9.73518462 101.224615 9.73518462 106.267385 17.4686769 106.296923 17.4686769 106.296923 9.73518462 108.149077 9.73518462 108.149077 20.1444923 105.797077 20.1444923 100.650923 12.1610769 100.621846 12.1610769 100.621846 20.1444923 98.7692308 20.1444923"></polygon>
                <path d="M120.556615,12.1758 C120.174462,11.7641077 119.802,11.4896769 119.439231,11.3524615 C119.086615,11.2152462 118.728462,11.1466154 118.366154,11.1466154 C117.827077,11.1466154 117.336923,11.2446462 116.895692,11.4406615 C116.464615,11.6268923 116.092154,11.8915385 115.778308,12.2346 C115.464923,12.5678769 115.219846,12.9599077 115.043077,13.4107846 C114.876462,13.8616615 114.793385,14.3468308 114.793385,14.8663385 C114.793385,15.4250308 114.876462,15.9396 115.043077,16.4100923 C115.219846,16.8805846 115.464923,17.2873385 115.778308,17.6304 C116.092154,17.9734615 116.464615,18.243 116.895692,18.4390154 C117.336923,18.6350769 117.827077,18.7330615 118.366154,18.7330615 C118.787538,18.7330615 119.194154,18.6350769 119.586462,18.4390154 C119.988,18.2331692 120.360462,17.9097231 120.703846,17.4686769 L122.232923,18.5566615 C121.762154,19.2035538 121.188923,19.6740462 120.512308,19.9680923 C119.836154,20.2621385 119.115692,20.4091385 118.351385,20.4091385 C117.547385,20.4091385 116.807538,20.2817077 116.131385,20.0268923 C115.464923,19.7622462 114.886615,19.3946769 114.396462,18.9241846 C113.916,18.4439077 113.538462,17.8705385 113.264308,17.2040308 C112.989692,16.5375231 112.852615,15.7974923 112.852615,14.9839385 C112.852615,14.1508154 112.989692,13.3961077 113.264308,12.7197692 C113.538462,12.0336923 113.916,11.4504923 114.396462,10.9702154 C114.886615,10.4899385 115.464923,10.1223692 116.131385,9.86750769 C116.807538,9.60286154 117.547385,9.47053846 118.351385,9.47053846 C119.057077,9.47053846 119.708769,9.59796923 120.306923,9.85283077 C120.914308,10.0978615 121.477846,10.5193385 121.997538,11.1172154 L120.556615,12.1758 Z" id="路径" fill-rule="nonzero"></path>
                <polygon id="路径" fill-rule="nonzero" points="126.416769 9.73518462 128.268923 9.73518462 128.268923 13.8812769 133.135385 13.8812769 133.135385 9.73518462 134.988 9.73518462 134.988 20.1444923 133.135385 20.1444923 133.135385 15.5573538 128.268923 15.5573538 128.268923 20.1444923 126.416769 20.1444923"></polygon>
                <polygon id="路径" fill-rule="nonzero" points="140.254615 9.73518462 147.15 9.73518462 147.15 11.4112615 142.107231 11.4112615 142.107231 13.9694769 146.885538 13.9694769 146.885538 15.6455538 142.107231 15.6455538 142.107231 18.4684154 147.414923 18.4684154 147.414923 20.1444923 140.254615 20.1444923"></polygon>
                <path d="M14.9377846,29.8615385 C23.1838154,29.8615385 29.8685538,23.1768 29.8685538,14.9307692 C29.8685538,6.68473846 23.1838154,0 14.9377846,0 C6.69175385,0 0.00703126154,6.68473846 0.00703126154,14.9307692 C0.00703126154,23.1768 6.69175385,29.8615385 14.9377846,29.8615385 Z M10.4263846,21.6950769 L6.92376923,21.6950769 C6.09332308,21.6950769 5.67807692,21.6950769 5.4294,21.5342308 C5.16064615,21.3604615 4.99107692,21.0688154 4.97312308,20.7494769 C4.95646154,20.4539538 5.16212308,20.0936308 5.57344615,19.3730769 L5.57363077,19.3728 L13.2424154,5.93792308 C13.6597846,5.20666154 13.8684923,4.84103077 14.1340615,4.70492308 C14.4209077,4.55788615 14.7611077,4.55763231 15.0481846,4.70427692 C15.3139385,4.83996923 15.5231538,5.20532308 15.9415846,5.93593846 L17.7102923,9.024 L17.7103385,9.02409231 C18.0146308,9.55532308 18.1667538,9.82098462 18.2336769,10.1012308 C18.3065077,10.4063538 18.3066462,10.7242154 18.2340923,11.0293385 C18.1674462,11.3096769 18.0155077,11.5755231 17.7116308,12.1070769 L13.1257846,20.1294923 C12.8175231,20.6688462 12.6633692,20.9385231 12.4521692,21.1400769 C12.2222769,21.3594923 11.9435077,21.5212154 11.6388,21.6118615 C11.3588308,21.6950769 11.0480308,21.6950769 10.4263846,21.6950769 Z M22.9226769,21.6950769 L18.8617846,21.6950769 C18.0238154,21.6950769 17.6047846,21.6950769 17.3553231,21.5328462 C17.0857846,21.3575538 16.9167231,21.0637385 16.9008,20.7428769 C16.8860308,20.4459231 17.0969077,20.0840769 17.5186615,19.3605692 L19.5457385,15.8827846 C19.9621846,15.1684154 20.1704308,14.8112308 20.4340154,14.6774308 C20.7189231,14.5328308 21.0558,14.5326 21.3409385,14.6767385 C21.6048,14.8101231 21.8134615,15.1670308 22.2308308,15.8807077 L22.2309231,15.8809385 L24.2647385,19.3586308 C24.6881077,20.0826 24.8997692,20.4446308 24.8853231,20.7418154 C24.8696769,21.0629538 24.7007077,21.3570923 24.4310308,21.5326615 C24.1815692,21.6950769 23.7619385,21.6950769 22.9226769,21.6950769 Z" id="形状"></path>
            </g>
        </g>
    </g>
</svg>