<?xml version="1.0" encoding="utf-8"?>
<!-- Generator: Adobe Illustrator 23.1.0, SVG Export Plug-In . SVG Version: 6.00 Build 0)  -->
<svg version="1.1" id="Layer_1" xmlns="http://www.w3.org/2000/svg" xmlns:xlink="http://www.w3.org/1999/xlink" x="0px" y="0px"
	 viewBox="0 0 62 42" style="enable-background:new 0 0 62 42;" xml:space="preserve">
<style type="text/css">
	.st0{fill:#6DDAC0;}
</style>
<g>
	<path class="st0" d="M2.2,1.3C1.2,0.7,0,1.4,0,2.5v9.1c0,1,0.6,2,1.5,2.5l23.8,13.7c3,1.8,6.8,1.8,9.8,0L59,14.2
		c0.9-0.5,1.5-1.5,1.5-2.5V2.5c0-1.1-1.2-1.8-2.2-1.3L33.7,15.4c-2.1,1.2-4.8,1.2-6.9,0L2.2,1.3z"/>
	<path class="st0" d="M2.2,18.9C1.2,18.3,0,19,0,20.1v8.8c0,1,0.6,2,1.5,2.5l16,9.2c1,0.6,2.2-0.1,2.2-1.3v-8.8c0-1-0.6-2-1.5-2.5
		L2.2,18.9z"/>
	<path class="st0" d="M58.2,18.9c1-0.6,2.2,0.1,2.2,1.3v8.8c0,1-0.6,2-1.5,2.5l-16,9.2c-1,0.6-2.2-0.1-2.2-1.3v-8.8
		c0-1,0.6-2,1.5-2.5L58.2,18.9z"/>
</g>
</svg>
