<?xml version="1.0" encoding="UTF-8"?>
<svg width="50px" height="50px" viewBox="0 0 50 50" version="1.1" xmlns="http://www.w3.org/2000/svg" xmlns:xlink="http://www.w3.org/1999/xlink">
    <title>HBTC</title>
    <defs>
        <path d="M25.8962074,14 L27.7297542,14.4749264 L26.9939944,17.5438818 C27.4862846,17.6599209 27.9815847,17.7783919 28.4635073,17.9031165 L28.4635073,17.9031165 L29.1965916,14.8543116 L31.0319778,15.329238 L30.2794962,18.460382 C32.5964706,19.2893318 34.2907247,20.5320616 33.9582951,22.8436362 L33.9582951,22.8436362 L33.8998794,23.1717996 C33.5941163,24.6441457 32.7329206,25.3754188 31.6138969,25.6445553 C33.2603266,26.5353463 34.0974206,27.9007162 33.2994557,30.267531 C32.3103604,33.2053345 29.9572669,33.4533941 26.828114,32.8384565 L26.828114,32.8384565 L26.0686092,36 L24.2335575,35.5250736 L24.9830291,32.4060894 C24.5077952,32.2834493 24.0228626,32.1531659 23.5212082,32.0121124 L23.5212082,32.0121124 L22.7687267,35.1456884 L20.9360159,34.670762 L21.6955207,31.5031386 L18,30.5338303 L18.9110044,28.3487173 C18.9110044,28.3487173 20.2631302,28.7239335 20.2447362,28.6961397 L20.2447362,28.6961397 L20.4073658,28.7237829 C20.8135999,28.7539061 21.0046497,28.452944 21.0855089,28.2444906 L21.0855089,28.2444906 L23.144633,19.6666325 C23.1673747,19.261538 23.0325969,18.7508271 22.2894795,18.5580077 C22.2973235,18.5525121 22.2017605,18.5244053 22.0586107,18.4864295 L22.0586107,18.4864295 L20.956751,18.2137121 L21.4450279,16.1776434 L25.1458996,17.1299281 L25.8962074,14 Z M25.123994,25.5215678 L24.1163376,29.7175614 C25.3607749,30.0389271 29.1959227,31.3179625 29.7644644,28.9511477 L29.7644644,28.9511477 L29.8102311,28.7019276 C30.0255623,26.923815 27.7508413,26.1686682 26.1835765,25.7756878 L26.1835765,25.7756878 L25.123994,25.5215678 Z M26.4988615,19.7944839 L25.5865194,23.6011907 C26.6229373,23.8697482 29.816302,24.9641286 30.3336749,22.81011 L30.3336749,22.81011 L30.3766402,22.5674958 C30.5698504,20.9980822 28.7620126,20.3555378 27.4629197,20.0246938 L27.4629197,20.0246938 L26.4988615,19.7944839 Z" id="path-1"></path>
        <filter x="-3.1%" y="-2.3%" width="106.2%" height="109.1%" filterUnits="objectBoundingBox" id="filter-2">
            <feOffset dx="0" dy="1" in="SourceAlpha" result="shadowOffsetOuter1"></feOffset>
            <feColorMatrix values="0 0 0 0 1   0 0 0 0 1   0 0 0 0 1  0 0 0 0.5 0" type="matrix" in="shadowOffsetOuter1"></feColorMatrix>
        </filter>
    </defs>
    <g id="HBTC" stroke="none" stroke-width="1" fill="none" fill-rule="evenodd">
        <g id="编组-5">
            <g id="编组-14备份" transform="translate(1.000000, 3.000000)" fill-rule="nonzero">
                <g id="编组-10">
                    <path d="M22,44 C34.1503169,44 44,34.1503169 44,22 C44,9.84968314 34.1503169,0 22,0 C9.84980989,0 0,9.84968314 0,22 C0,34.1503169 9.84980989,44 22,44 Z" id="Path" fill="#EA9057"></path>
                    <path d="M25.7446809,44 C37.8949977,44 47.7446809,34.1503169 47.7446809,22 C47.7446809,9.84968314 37.8949977,0 25.7446809,0 C13.5944907,0 3.74468085,9.84968314 3.74468085,22 C3.74468085,34.1503169 13.5944907,44 25.7446809,44 Z" id="Path" fill="#FFBA5F"></path>
                    <path d="M25.3829787,38.7659574 C34.4310592,38.7659574 41.7659574,31.4310592 41.7659574,22.3829787 C41.7659574,13.3348983 34.4310592,6 25.3829787,6 C16.3348983,6 9,13.3348983 9,22.3829787 C9,31.4310592 16.3348983,38.7659574 25.3829787,38.7659574 Z" id="Path" fill="#F79D52"></path>
                </g>
            </g>
            <g id="形状结合">
                <use fill="black" fill-opacity="1" filter="url(#filter-2)" xlink:href="#path-1"></use>
                <use fill="#FFFFFF" fill-rule="evenodd" xlink:href="#path-1"></use>
            </g>
            <rect id="矩形" x="0" y="0" width="50" height="50"></rect>
        </g>
    </g>
</svg>