<?xml version="1.0" encoding="utf-8"?>
<!-- Generator: Adobe Illustrator 24.1.0, SVG Export Plug-In . SVG Version: 6.00 Build 0)  -->
<svg version="1.1" id="图层_1" xmlns="http://www.w3.org/2000/svg" xmlns:xlink="http://www.w3.org/1999/xlink" x="0px" y="0px"
	 viewBox="0 0 220 26" style="enable-background:new 0 0 220 26;" xml:space="preserve">
<style type="text/css">
	.st0{fill:#2D3338;}
	.st1{fill:#01943F;}
</style>
<g id="logo.d3">
	<g id="logo.d37d94cb">
		<path id="路径" class="st0" d="M33.2,6.7v7.5h-7.6V7.7c0-0.5-0.4-1-1-1h-2.6v17.8c0,0.5,0.4,1,1,1h2.6v-8.3h7.6v7.3
			c0,0.5,0.4,1,1,1h2.6V7.7c0-0.5-0.4-1-1-1H33.2z"/>
		<path id="路径_1_" class="st0" d="M48.1,11.1V20c0,0.8-0.4,1.6-1.1,2c-2,1.1-4.1-0.3-4.1-2.1v-7.8c0-0.5-0.4-1-1-1h-2.6v9
			c0,2.9,2.4,5.3,5.4,5.3h1.5c3,0,5.4-2.4,5.4-5.3v-8.1c0-0.5-0.4-1-1-1H48.1z"/>
		<path id="路径_2_" class="st1" d="M87.2,25.4h2.6V12.9c0-0.5-0.4-1-1-1h-2.6v12.6C86.2,25,86.7,25.4,87.2,25.4z"/>
		<path id="路径_3_" class="st1" d="M88,10.5c1.1,0,2-0.9,2-1.9s-0.9-1.9-2-1.9c-1.1,0-2,0.9-2,1.9S86.9,10.5,88,10.5z"/>
		<path id="形状" class="st0" d="M60.9,11.1c-3.7,0-6.8,2.6-6.8,6.2v2c0,3.6,3,6.2,6.8,6.2c3.7,0,6.8-2.6,6.8-6.2v-2
			C67.6,13.7,64.6,11.1,60.9,11.1z M64.1,19.5c0,1.7-1.4,2.8-3.2,2.8c-1.8,0-3.2-1.1-3.2-2.8v-2.4c0-1.7,1.4-2.8,3.2-2.8
			c1.8,0,3.2,1.1,3.2,2.8V19.5z"/>
		<path id="形状_1_" class="st1" d="M76.9,11.1c-1.2,0-2.3,0.3-3.2,0.7V7.6c0-0.5-0.4-1-1-1h-2.6v12.6c0,3.6,3,6.2,6.8,6.2
			c3.7,0,6.8-2.6,6.8-6.2v-2C83.7,13.7,80.7,11.1,76.9,11.1z M80.1,19.5c0,1.7-1.4,2.8-3.2,2.8s-3.2-1.1-3.2-2.8v-2.4
			c0-1.7,1.4-2.8,3.2-2.8s3.2,1.1,3.2,2.8V19.5z"/>
		<path id="路径_4_" class="st0" d="M11.4,8c0-3.7-1.9-6.9-3.3-8C8.1,0,8,0,8,0.1c0,0,0,0,0,0c-0.1,7.2-3.9,9.2-6,11.8
			c-4.8,6.1-0.3,12.7,4.2,14c2.5,0.7-0.6-1.2-1-5.2C4.8,15.7,11.4,12,11.4,8z"/>
		<path id="路径_5_" class="st1" d="M13.6,10.5C13.6,10.4,13.6,10.4,13.6,10.5c-0.2,0.9-1.1,2.9-2.3,4.6c-4.1,6-1.8,9-0.4,10.5
			c0.8,0.9,0,0,1.9-0.9c0.1-0.1,3.7-2,4.1-6.5C17.2,14,14.6,11.2,13.6,10.5z"/>
		<path id="路径_6_" class="st0" d="M109.6,22.1h-9.2v-4.8h7.1c0.1,0,0.5,0,1.1,0l0.1,0v-2.1c0-0.3-0.1-0.6-0.3-0.8
			c-0.2-0.2-0.5-0.4-0.8-0.3h-7.2V10h10.1V7.9c0-0.6-0.5-1.2-1.1-1.2H97v0.1c0,0,0,13.5,0,17.4c0,0.3,0.1,0.6,0.3,0.8
			c0.2,0.2,0.5,0.3,0.8,0.3h12.6v-2.2C110.8,22.6,110.3,22.1,109.6,22.1z"/>
		<path id="路径_7_" class="st0" d="M128.3,11.6c-1.2-1.5-3.6-2-5.2-2c-3.4,0-5.9,2.4-5.9,6c0,4.3,2.5,6.5,6,6.5
			c1.9,0,4-0.7,5-1.8h0.1v2.6c0,1.1-2.1,2.4-5.7,2.4c-5,0-9.4-3.7-9.4-9.2c0-5.7,3.9-9.7,9.7-9.7c3.1,0,5.4,1.1,5.4,1.9v3.3
			L128.3,11.6L128.3,11.6z"/>
		<path id="形状_2_" class="st0" d="M139.4,6.7c-4.8,0-8.5,3.4-8.5,8v2.7c0,4.5,3.6,8,8.5,8s8.5-3.4,8.5-8v-2.7
			C147.9,10.2,144.3,6.7,139.4,6.7z M144.4,17.8c0,2.7-2.2,4.3-5,4.3s-5-1.6-5-4.3v-3.4c0-2.7,2.2-4.3,5-4.3s5,1.7,5,4.3V17.8z"/>
		<path id="形状_3_" class="st0" d="M196.8,12.1c-1.1-0.8-2.6-1.2-4.6-1.2c-0.7,0-1.5,0.1-2.3,0.2c-0.6,0.1-1.6,0.2-2.2,0.3
			c-0.3,0.1-0.3,0.3-0.3,0.5v1.9c0,0.3,0,0.6,0.4,0.6c0.7-0.2,2-0.4,2.3-0.5c0.6-0.1,1.2-0.1,1.8-0.1c1,0,1.8,0.2,2.3,0.5
			c0.5,0.3,0.7,0.9,0.7,1.8v0.1c-0.2,0-0.4,0-0.6,0c-0.4,0-0.9,0-1.5,0c-0.9,0-1.7,0.1-2.5,0.3c-0.8,0.2-1.5,0.5-2.1,0.9
			c-0.6,0.4-1.1,0.9-1.5,1.5c-0.4,0.6-0.5,1.3-0.5,2.1c0,0.8,0.2,1.5,0.5,2.1c0.3,0.6,0.8,1.1,1.3,1.4c0.6,0.4,1.3,0.6,2.1,0.8
			c0.8,0.2,1.7,0.2,2.6,0.2c0.7,0,5.8-0.1,5.8-2.4c0-2.7,0-6.8,0-6.8C198.4,14.3,197.9,13,196.8,12.1z M194.9,18.8v3.6
			c-0.3,0.1-0.6,0.1-0.9,0.1c-0.8,0.1-1.5,0.1-2.4,0c-0.3,0-0.6-0.1-0.9-0.2c-0.3-0.1-0.5-0.3-0.7-0.6c-0.2-0.2-0.3-0.6-0.3-1
			c0-0.7,0.3-1.2,0.8-1.5c0.6-0.4,1.4-0.5,2.5-0.5c0.3,0,0.7,0,1.1,0.1C194.4,18.7,194.6,18.8,194.9,18.8z"/>
		<path id="路径_8_" class="st0" d="M213.9,10.9c-1.4,0-2.9,0.3-3.2,1v-0.3c0-0.5-0.4-0.9-0.9-0.9H207v13.7c0,0.5,0.4,0.9,0.9,0.9
			h2.8v-7.8c0-2.5,1.5-3.4,2.7-3.4c1.6,0,2.9,0.9,2.9,3.3v7c0,0.5,0.4,0.9,0.9,0.9h2.8v-8.1C220,13.1,217.8,10.9,213.9,10.9z"/>
		<path id="路径_9_" class="st0" d="M201.9,25.1h2.6V12.6c0-0.5-0.4-1-1-1h-2.6v12.6C200.9,24.7,201.4,25.1,201.9,25.1z"/>
		<path id="路径_10_" class="st0" d="M202.7,10.2c1.1,0,2-0.9,2-1.9s-0.9-1.9-2-1.9c-1.1,0-2,0.9-2,1.9S201.6,10.2,202.7,10.2z"/>
		<path id="路径_11_" class="st0" d="M168,11.6c-1.2-1.5-3.6-2-5.2-2c-3.4,0-5.9,2.4-5.9,6c0,4.3,2.5,6.5,6,6.5c1.9,0,4-0.7,5-1.8
			h0.1v2.6c0,1.1-2.1,2.4-5.7,2.4c-5,0-9.4-3.7-9.4-9.2c0-5.7,3.9-9.7,9.7-9.7c3.1,0,5.4,1.1,5.4,1.9v3.3L168,11.6L168,11.6z"/>
		<path id="路径_12_" class="st0" d="M177.6,11.2c-1.4,0-2.9,0.3-3.2,1V7.4c0-0.5-0.4-0.9-0.9-0.9h-2.8v17.9
			c0,0.5,0.4,0.9,0.9,0.9h2.8v-7.6c0-2.5,1.5-3.4,2.6-3.4c1.6,0,2.9,0.9,2.9,3.3v6.8c0,0.5,0.4,0.9,0.9,0.9h2.7v-7.9
			C183.6,13.4,181.4,11.2,177.6,11.2z"/>
	</g>
</g>
</svg>
