<?xml version="1.0" encoding="UTF-8"?>
<svg width="86px" height="50px" viewBox="0 0 86 50" version="1.1" xmlns="http://www.w3.org/2000/svg" xmlns:xlink="http://www.w3.org/1999/xlink">
    <title>WAR_HT</title>
    <defs>
        <path d="M25.0289531,12.0795599 C25.0245677,12.0025178 25.0573644,11.9962202 25.0810155,12.0013362 L25.1038421,12.0101541 L25.1038421,12.0101541 C26.1681432,12.8194355 27.5674208,15.3046369 27.5674208,18.1945638 C27.5674208,19.3289986 26.9097401,20.4313005 26.0902508,21.5560415 L25.6693178,22.1205347 L25.6693178,22.1205347 L25.0174842,22.9776026 C23.8598295,24.5148221 22.7818277,26.1323573 22.958879,27.9595641 C23.0412201,28.8099274 23.2755013,29.5381725 23.5340822,30.1368467 L23.6648067,30.4253517 L23.6648067,30.4253517 L23.8607312,30.8171654 L23.8607312,30.8171654 L24.0458243,31.1592256 L24.0458243,31.1592256 L24.2550838,31.5367037 L24.2550838,31.5367037 L24.3683681,31.759955 C24.5182334,32.0888325 24.4567695,32.2006993 23.9346789,32.0809992 L23.700685,32.0207345 L23.700685,32.0207345 C20.2964395,31.0680598 16.9534208,25.9137063 20.5480936,21.2124418 C20.6173228,21.1218994 20.6890718,21.0323938 20.7629877,20.9435218 L20.9908827,20.6784036 L20.9908827,20.6784036 L21.2296608,20.414668 L21.2296608,20.414668 L22.1205123,19.4675579 L22.1205123,19.4675579 L22.3820561,19.1801093 L22.3820561,19.1801093 L22.642835,18.8807389 C23.8114421,17.5031196 24.8924844,15.6898981 25.0175204,12.4491335 L25.0289531,12.0795599 Z M29.1265967,20.1048344 C29.1480176,20.0691982 29.1790527,20.0793799 29.200811,20.0943132 L29.2730258,20.1578516 L29.2730258,20.1578516 L29.4385423,20.3125645 L29.4385423,20.3125645 L29.6274181,20.5037791 C29.6605269,20.538667 29.6943712,20.5750584 29.728832,20.6129448 L29.9420445,20.8581335 C30.7804277,21.8662603 31.8191626,23.6560621 31.6114278,26.122263 C31.4186954,28.4106733 30.1676964,29.8430604 29.3220278,30.5604104 L29.10254,30.738429 C29.0680002,30.7651794 29.0345727,30.7904789 29.002395,30.8143408 L28.8254265,30.9403665 L28.8254265,30.9403665 L28.6306481,31.0661022 L28.6306481,31.0661022 L28.5404721,31.1177809 L28.5404721,31.1177809 C28.0652192,31.3573919 27.8117659,31.5952872 27.6639245,31.7799356 L27.5797346,31.8945805 C27.5678857,31.9121848 27.5570218,31.9289903 27.5469837,31.9449264 L27.4746312,32.0629679 L27.4746312,32.0629679 L27.438417,32.1099243 C27.4038237,32.1427719 27.3702675,32.1315961 27.3033224,32.0611287 L27.2239726,31.9703318 L27.2239726,31.9703318 L26.9345581,31.6116755 L26.9345581,31.6116755 L26.7453373,31.363371 L26.7453373,31.363371 L26.6175175,31.1840217 L26.6175175,31.1840217 L26.4907142,30.9930397 L26.4907142,30.9930397 L26.3669457,30.7899258 C26.3466826,30.7550347 26.3266301,30.7196174 26.3068301,30.6836634 L26.1913979,30.4614157 C25.5396489,29.126432 25.3003351,27.1085216 27.2762114,23.9618201 L27.4510393,23.689328 C28.3549362,22.3096976 29.0680685,20.8072071 29.1265967,20.1048344 Z" id="path-1"></path>
        <filter x="-4.0%" y="-2.5%" width="107.9%" height="109.9%" filterUnits="objectBoundingBox" id="filter-2">
            <feOffset dx="0" dy="1" in="SourceAlpha" result="shadowOffsetOuter1"></feOffset>
            <feColorMatrix values="0 0 0 0 0.2   0 0 0 0 0.380392157   0 0 0 0 0.760784314  0 0 0 1 0" type="matrix" in="shadowOffsetOuter1"></feColorMatrix>
        </filter>
        <path d="M4.94948267,0.14 L5.14597385,0.194744384 L5.50637309,0.412466289 L5.64632767,0.561074664 L9.18856,7.30984 L9.298,7.1016 L6.17184146,1.14492934 L6.77888493,0.14 L13.8403364,0.14 L14.4473799,1.14492934 L11.3196,7.1016 L11.42904,7.31136 L14.9725508,0.561139418 L15.1126627,0.412391839 L15.4733708,0.194669934 L15.6697387,0.14 L19.9278138,0.14 L20.5352942,1.14484738 L13.9736269,13.6476947 L12.7334722,13.6476947 L10.3088,9.02744 L7.88576153,13.6476947 L6.6452804,13.6476947 L0.0839710222,1.14492171 L0.691009886,0.14 L4.94948267,0.14 Z M4.34128,1.92904 L2.51728,1.92904 L7.26576,10.97456 L9.1384,7.40712 L7.21915085,7.40787759 L4.34128,1.92904 Z M18.10032,1.92904 L16.27632,1.92904 L13.4020037,7.40787759 L11.4792,7.40712 L13.35184,10.97456 L18.10032,1.92904 Z M12.01272,1.92904 L8.6064,1.92904 L10.3088,5.17576 L12.01272,1.92904 Z" id="path-3"></path>
        <filter x="-2.4%" y="-3.7%" width="104.9%" height="114.8%" filterUnits="objectBoundingBox" id="filter-4">
            <feOffset dx="0" dy="1" in="SourceAlpha" result="shadowOffsetOuter1"></feOffset>
            <feColorMatrix values="0 0 0 0 0.0588235294   0 0 0 0 0.549019608   0 0 0 0 0.125490196  0 0 0 1 0" type="matrix" in="shadowOffsetOuter1"></feColorMatrix>
        </filter>
    </defs>
    <g id="WAR_HT" stroke="none" stroke-width="1" fill="none" fill-rule="evenodd">
        <g id="编组-9" transform="translate(37.000000, 3.000000)" fill-rule="nonzero">
            <path d="M22,44 C34.1503169,44 44,34.1503169 44,22 C44,9.84968314 34.1503169,0 22,0 C9.84980989,0 0,9.84968314 0,22 C0,34.1503169 9.84980989,44 22,44 Z" id="Path备份" fill="#3361C2"></path>
            <path d="M25.7446809,44 C37.8949977,44 47.7446809,34.1503169 47.7446809,22 C47.7446809,9.84968314 37.8949977,0 25.7446809,0 C13.5944907,0 3.74468085,9.84968314 3.74468085,22 C3.74468085,34.1503169 13.5944907,44 25.7446809,44 Z" id="Path备份-2" fill="#9FBFFF"></path>
            <path d="M25.3829787,38.7659574 C34.4310592,38.7659574 41.7659574,31.4310592 41.7659574,22.3829787 C41.7659574,13.3348983 34.4310592,6 25.3829787,6 C16.3348983,6 9,13.3348983 9,22.3829787 C9,31.4310592 16.3348983,38.7659574 25.3829787,38.7659574 Z" id="Path备份-3" fill="#4364E8" opacity="0.6"></path>
            <g id="形状">
                <use fill="black" fill-opacity="1" filter="url(#filter-2)" xlink:href="#path-1"></use>
                <use fill="#E9EDFF" xlink:href="#path-1"></use>
            </g>
        </g>
        <g id="编组-5" transform="translate(2.000000, 0.000000)">
            <g id="编组-10">
                <rect id="矩形" x="0" y="0" width="50" height="50"></rect>
                <path d="M23,47 C35.1503169,47 45,37.1503169 45,25 C45,12.8496831 35.1503169,3 23,3 C10.8498099,3 1,12.8496831 1,25 C1,37.1503169 10.8498099,47 23,47 Z" id="Path" fill="#1B902B" fill-rule="nonzero"></path>
                <path d="M26.7446809,47 C38.8949977,47 48.7446809,37.1503169 48.7446809,25 C48.7446809,12.8496831 38.8949977,3 26.7446809,3 C14.5944907,3 4.74468085,12.8496831 4.74468085,25 C4.74468085,37.1503169 14.5944907,47 26.7446809,47 Z" id="Path" fill="#32CF47" fill-rule="nonzero"></path>
                <path d="M26.3829787,41.7659574 C35.4310592,41.7659574 42.7659574,34.4310592 42.7659574,25.3829787 C42.7659574,16.3348983 35.4310592,9 26.3829787,9 C17.3348983,9 10,16.3348983 10,25.3829787 C10,34.4310592 17.3348983,41.7659574 26.3829787,41.7659574 Z" id="Path" fill="#18AD2C" fill-rule="nonzero"></path>
            </g>
            <g id="形状" transform="translate(16.000000, 19.000000)">
                <use fill="black" fill-opacity="1" filter="url(#filter-4)" xlink:href="#path-3"></use>
                <use fill="#FFFFFF" fill-rule="evenodd" xlink:href="#path-3"></use>
            </g>
        </g>
    </g>
</svg>