<?xml version="1.0" encoding="UTF-8"?>
<svg width="270px" height="42px" viewBox="0 0 270 42" version="1.1" xmlns="http://www.w3.org/2000/svg" xmlns:xlink="http://www.w3.org/1999/xlink">
    <title>logo</title>
    <g id="logo" stroke="none" stroke-width="1" fill="none" fill-rule="evenodd">
        <g id="编组">
            <path d="M92.5458,39.5512 L92.5458,30.6452 C94.1608,31.9992 95.9138,33.0152 97.8068,33.6932 C99.6988,34.3702 101.6098,34.7082 103.5408,34.7082 C104.6718,34.7082 105.6598,34.6072 106.5048,34.4032 C107.3488,34.1982 108.0538,33.9152 108.6198,33.5532 C109.1858,33.1922 109.6078,32.7652 109.8868,32.2732 C110.1648,31.7812 110.3038,31.2472 110.3038,30.6722 C110.3038,29.8932 110.0818,29.1972 109.6358,28.5852 C109.1908,27.9732 108.5828,27.4062 107.8128,26.8872 C107.0428,26.3672 106.1288,25.8662 105.0708,25.3842 C104.0138,24.9022 102.8728,24.4092 101.6478,23.9082 C98.5298,22.6112 96.2058,21.0242 94.6748,19.1502 C93.1448,17.2762 92.3788,15.0122 92.3788,12.3582 C92.3788,10.2802 92.7958,8.4932 93.6318,6.9992 C94.4668,5.5062 95.6028,4.2772 97.0408,3.3122 C98.4788,2.3472 100.1448,1.6372 102.0378,1.1832 C103.9298,0.7282 105.9338,0.5002 108.0488,0.5002 C110.1278,0.5002 111.9688,0.6262 113.5748,0.8762 C115.1788,1.1272 116.6588,1.5122 118.0138,2.0312 L118.0138,10.3542 C117.3458,9.8902 116.6178,9.4822 115.8288,9.1292 C115.0398,8.7772 114.2288,8.4852 113.3938,8.2522 C112.5588,8.0212 111.7278,7.8492 110.9018,7.7382 C110.0768,7.6262 109.2928,7.5712 108.5508,7.5712 C107.5298,7.5712 106.6018,7.6682 105.7668,7.8632 C104.9318,8.0582 104.2268,8.3312 103.6518,8.6842 C103.0758,9.0362 102.6308,9.4582 102.3158,9.9502 C101.9998,10.4422 101.8428,10.9932 101.8428,11.6072 C101.8428,12.2752 102.0188,12.8722 102.3718,13.4022 C102.7238,13.9302 103.2248,14.4312 103.8748,14.9052 C104.5238,15.3782 105.3118,15.8422 106.2398,16.2962 C107.1678,16.7512 108.2158,17.2202 109.3858,17.7012 C110.9818,18.3692 112.4148,19.0792 113.6858,19.8312 C114.9568,20.5822 116.0468,21.4322 116.9568,22.3782 C117.8648,23.3242 118.5608,24.4052 119.0438,25.6202 C119.5258,26.8362 119.7678,28.2512 119.7678,29.8652 C119.7678,32.0922 119.3448,33.9612 118.5008,35.4742 C117.6568,36.9872 116.5108,38.2112 115.0638,39.1482 C113.6158,40.0852 111.9318,40.7582 110.0118,41.1662 C108.0908,41.5732 106.0638,41.7792 103.9298,41.7792 C101.7398,41.7792 99.6578,41.5922 97.6818,41.2222 C95.7048,40.8512 93.9938,40.2942 92.5458,39.5512" id="Fill-1" fill="#030014"></path>
            <path d="M140.2831,40.7484 C138.9841,41.4354 137.0261,41.7784 134.4101,41.7784 C128.2121,41.7784 125.1141,38.5594 125.1141,32.1194 L125.1141,19.0654 L125.1141,12.5804 L125.1141,5.1764 L133.8811,2.6714 L133.8811,12.5804 L140.2831,12.5804 L140.2831,19.0654 L133.8811,19.0654 L133.8811,30.5894 C133.8811,33.5584 135.0591,35.0424 137.4161,35.0424 C138.3441,35.0424 139.2991,34.7734 140.2831,34.2354 L140.2831,40.7484 Z" id="Fill-3" fill="#030014"></path>
            <path d="M194.5033,20.5131 C193.4453,19.9381 192.2113,19.6511 190.8013,19.6511 C188.8903,19.6511 187.3963,20.3511 186.3203,21.7511 C185.2433,23.1531 184.7063,25.0601 184.7063,27.4721 L184.7063,41.0821 L175.9103,41.0821 L175.9103,10.7001 L184.7063,10.7001 L184.7063,17.8681 L184.8173,17.8681 C186.2093,14.0091 188.7133,12.0791 192.3323,12.0791 C193.2603,12.0791 193.9833,12.1911 194.5033,12.4131 L194.5033,20.5131 Z" id="Fill-5" fill="#030014"></path>
            <path d="M215.4662,40.7484 C214.1672,41.4354 212.2092,41.7784 209.5932,41.7784 C203.3952,41.7784 200.2972,38.5594 200.2972,32.1194 L200.2972,19.0654 L200.2972,12.5804 L200.2972,5.1764 L209.0642,2.6714 L209.0642,12.5804 L215.4662,12.5804 L215.4662,19.0654 L209.0642,19.0654 L209.0642,30.5894 C209.0642,33.5584 210.2422,35.0424 212.5992,35.0424 C213.5272,35.0424 214.4822,34.7734 215.4662,34.2354 L215.4662,40.7484 Z" id="Fill-7" fill="#030014"></path>
            <path d="M269.6308,20.5131 C268.5728,19.9381 267.3388,19.6511 265.9288,19.6511 C264.0178,19.6511 262.5238,20.3511 261.4478,21.7511 C260.3708,23.1531 259.8338,25.0601 259.8338,27.4721 L259.8338,41.0821 L251.0378,41.0821 L251.0378,10.7001 L259.8338,10.7001 L259.8338,17.8681 L259.9448,17.8681 C261.3368,14.0091 263.8408,12.0791 267.4598,12.0791 C268.3878,12.0791 269.1108,12.1911 269.6308,12.4131 L269.6308,20.5131 Z" id="Fill-9" fill="#030014"></path>
            <path d="M23.4677,3.0785 L41.0787,3.0785 L32.2737,19.8565 L23.4677,3.0785 Z M62.2967,1.2595 L49.8417,1.2595 L49.0357,1.7455 L39.0297,20.8145 L41.0837,20.8145 L50.3907,3.0785 L60.7917,3.0785 L42.1297,38.6395 L33.3007,21.8145 L43.3887,2.5915 L42.5827,1.2595 L21.9637,1.2595 L21.1577,2.5915 L31.2457,21.8145 L22.4167,38.6395 L3.7547,3.0785 L14.1547,3.0785 L23.4677,20.8145 L25.5227,20.8145 L15.5097,1.7455 L14.7047,1.2595 L2.2507,1.2595 L1.4447,2.5915 L21.6117,41.0185 L23.2217,41.0185 L32.2737,23.7715 L41.3247,41.0185 L42.9357,41.0185 L63.1017,2.5915 L62.2967,1.2595 Z" id="Fill-11" fill="#0F8C20"></path>
            <path d="M15.0563049,0.0003 L16.461879,0.84942572 L27.6052466,22.0733 L22.7078214,22.0733 L13.394,4.337 L5.838,4.337 L22.417,35.929 L29.824,21.814 L19.7132716,2.54905799 L21.2528892,0.0003 L43.2941108,0.0003 L44.8337284,2.54905799 L34.722,21.814 L42.129,35.929 L58.708,4.337 L51.151,4.337 L41.8452842,22.0733 L36.9459332,22.0733 L48.0841241,0.849362099 L49.4907972,0.0003 L63.005994,0.0003 L64.54678,2.54895014 L43.6962677,42.2783 L40.563736,42.2783 L32.273,26.48 L23.9832804,42.2783 L20.8497255,42.2783 L0.000277660829,2.54904794 L1.5398892,0.0003 L15.0563049,0.0003 Z M38.995,4.337 L25.551,4.337 L32.273,17.147 L38.995,4.337 Z" id="形状" fill="#0F8C20" fill-rule="nonzero"></path>
            <path d="M24.724,3.8373 L32.273,18.2233 L39.823,3.8373 L24.724,3.8373 Z M32.273,21.4893 L22.212,2.3193 L42.334,2.3193 L32.273,21.4893 Z M22.07,40.2603 L22.41,40.2603 L2.499,2.3193 L14.614,2.3193 L23.927,20.0563 L24.266,20.0563 L14.936,2.2863 L14.494,2.0183 L2.679,2.0183 L2.316,2.6173 L22.07,40.2603 Z M41.784,40.2603 L42.123,40.2603 L32.443,21.8143 L42.517,2.6173 L42.155,2.0183 L22.391,2.0183 L22.029,2.6173 L32.103,21.8143 L22.424,40.2603 L22.763,40.2603 L32.273,22.1383 L41.784,40.2603 Z M42.137,40.2603 L42.476,40.2603 L62.23,2.6173 L61.868,2.0183 L50.053,2.0183 L49.61,2.2863 L40.285,20.0563 L40.624,20.0563 L49.932,2.3193 L62.047,2.3193 L42.137,40.2603 Z M43.394,41.7783 L40.866,41.7783 L32.273,25.4053 L23.681,41.7783 L21.152,41.7783 L0.574,2.5663 L1.822,0.5003 L14.917,0.5003 L16.084,1.2053 L26.778,21.5733 L23.01,21.5733 L13.696,3.8373 L5.011,3.8373 L22.417,37.0053 L30.389,21.8143 L20.287,2.5663 L21.535,0.5003 L43.012,0.5003 L44.26,2.5663 L34.158,21.8143 L42.13,37.0053 L59.536,3.8373 L50.85,3.8373 L41.543,21.5733 L37.773,21.5733 L48.462,1.2053 L49.63,0.5003 L62.724,0.5003 L63.973,2.5663 L43.394,41.7783 Z" id="Fill-15" fill="#0F8C20"></path>
            <path d="M156.7607,11.8851 C155.0167,11.8851 153.0817,12.1261 150.9577,12.6091 C148.8327,13.0911 147.1577,13.6481 145.9337,14.2791 L145.9337,20.9031 C148.9947,18.8801 152.2237,17.8681 155.6197,17.8681 C158.9487,17.8681 160.6297,19.3921 160.6767,22.4221 L160.6857,22.4221 L160.6857,27.5831 L160.6857,29.1321 L160.6857,29.5031 C160.6857,31.2471 160.1657,32.6911 159.1267,33.8311 C158.0877,34.9731 156.7417,35.5431 155.0907,35.5431 C153.9027,35.5431 152.9617,35.2231 152.2657,34.5831 C151.5697,33.9431 151.2217,33.1211 151.2217,32.1191 C151.2217,29.9111 152.6507,28.6221 155.5087,28.2511 L157.8627,27.8191 L157.8627,22.7871 L152.9477,23.5741 C146.3967,24.4291 143.1217,27.6201 143.1217,33.1501 C143.1217,35.7661 143.9157,37.8591 145.5017,39.4261 C147.0887,40.9941 149.2637,41.7791 152.0287,41.7791 C155.7767,41.7791 158.6067,40.1831 160.5187,36.9901 L160.6297,36.9901 L160.6297,41.0821 L168.9517,41.0821 L168.9517,24.0481 C168.9517,15.9391 164.8877,11.8851 156.7607,11.8851" id="Fill-19" fill="#030014"></path>
            <path d="M88.287,25.6342 C88.287,21.4042 87.15,18.0552 84.877,15.5862 C82.604,13.1182 79.389,11.8852 75.233,11.8852 C71.225,11.8852 67.848,13.2672 65.101,16.0312 C62.355,18.7972 60.982,22.5452 60.982,27.2772 C60.982,31.8412 62.253,35.4002 64.795,37.9512 C67.337,40.5022 70.909,41.7792 75.511,41.7792 C79.723,41.7792 83.147,41.0732 85.782,39.6622 L85.782,33.3172 C83.407,34.8012 80.651,35.5432 77.515,35.5432 C72.598,35.5432 69.991,33.4752 69.694,29.3362 C69.294,26.1592 69.638,23.9372 69.638,23.9372 C69.861,22.1932 70.487,20.7362 71.517,19.5672 C72.547,18.3982 73.767,17.8132 75.177,17.8132 C78.48,17.8132 80.132,19.8552 80.132,23.9372 L72.461,23.9372 L72.461,29.3362 L88.287,29.3362 L88.287,25.6342 Z" id="Fill-21" fill="#0F8C20"></path>
            <path d="M245.8051,25.6342 C245.8051,21.4042 244.6681,18.0552 242.3951,15.5862 C240.1221,13.1182 236.9071,11.8852 232.7511,11.8852 C228.7431,11.8852 225.3661,13.2672 222.6191,16.0312 C219.8731,18.7972 218.5001,22.5452 218.5001,27.2772 C218.5001,31.8412 219.7711,35.4002 222.3131,37.9512 C224.8551,40.5022 228.4271,41.7792 233.0291,41.7792 C237.2411,41.7792 240.6651,41.0732 243.3001,39.6622 L243.3001,33.3172 C240.9251,34.8012 238.1691,35.5432 235.0331,35.5432 C230.1161,35.5432 227.5091,33.4752 227.2121,29.3362 L227.2111,29.3362 C226.8111,26.1592 227.1561,23.9372 227.1561,23.9372 L227.1561,23.9372 C227.3791,22.1932 228.0051,20.7362 229.0351,19.5672 C230.0651,18.3982 231.2851,17.8132 232.6951,17.8132 C235.9981,17.8132 237.6501,19.8552 237.6501,23.9372 L229.9791,23.9372 L229.9791,29.3362 L245.8051,29.3362 L245.8051,25.6342 Z" id="Fill-23" fill="#030014"></path>
        </g>
    </g>
</svg>