<?xml version="1.0" encoding="UTF-8"?>
<svg width="129px" height="20px" viewBox="0 0 129 20" version="1.1" xmlns="http://www.w3.org/2000/svg" xmlns:xlink="http://www.w3.org/1999/xlink">
    <title>切片</title>
    <g id="westar" stroke="none" stroke-width="1" fill="none" fill-rule="evenodd">
        <g transform="translate(-265.000000, -30.000000)" id="nav">
            <g id="logo" transform="translate(265.000000, 30.000000)">
                <g id="编组" transform="translate(0.000133, 0.000143)">
                    <path d="M44.216194,18.8337619 L44.216194,14.5928095 C44.9878051,15.2375714 45.8253496,15.721381 46.7297829,16.0442381 C47.6337385,16.366619 48.5467718,16.5275714 49.4693607,16.5275714 C50.0097273,16.5275714 50.4817718,16.4794762 50.885494,16.3823333 C51.2887385,16.2847143 51.6255718,16.1499524 51.895994,15.9775714 C52.1664162,15.8056667 52.3680385,15.6023333 52.5013385,15.3680476 C52.6341607,15.1337619 52.7005718,14.8794762 52.7005718,14.6056667 C52.7005718,14.2347143 52.5945051,13.9032857 52.3814162,13.6118571 C52.1688051,13.3204286 51.8783162,13.0504286 51.5104273,12.8032857 C51.1425385,12.5556667 50.7058496,12.3170952 50.2003607,12.0875714 C49.6953496,11.8580476 49.1502051,11.6232857 48.5649273,11.3847143 C47.0752162,10.7670952 45.9648607,10.011381 45.2333829,9.119 C44.5023829,8.22661905 44.1364051,7.14852381 44.1364051,5.88471429 C44.1364051,4.89519048 44.3356385,4.0442381 44.7350607,3.33280952 C45.1340051,2.62185714 45.6767607,2.03661905 46.3638051,1.57709524 C47.0508496,1.11757143 47.8468273,0.77947619 48.7512607,0.563285714 C49.6552162,0.346619048 50.6126829,0.238047619 51.6231829,0.238047619 C52.6164829,0.238047619 53.4960718,0.298047619 54.2633829,0.417095238 C55.0297385,0.536619048 55.7368496,0.719952381 56.3842385,0.967095238 L56.3842385,4.93042857 C56.0650829,4.70947619 55.7172607,4.51519048 55.340294,4.34709524 C54.9633273,4.17947619 54.5758496,4.04042857 54.1769051,3.92947619 C53.7779607,3.81947619 53.3809273,3.73757143 52.9862829,3.68471429 C52.5921162,3.63138095 52.2175385,3.60519048 51.8630273,3.60519048 C51.3752162,3.60519048 50.9318385,3.65138095 50.532894,3.7442381 C50.1339496,3.83709524 49.7971162,3.96709524 49.522394,4.13519048 C49.247194,4.30280952 49.0345829,4.5037619 48.8840829,4.73804762 C48.7331051,4.97233333 48.658094,5.23471429 48.658094,5.52709524 C48.658094,5.84519048 48.7421829,6.12947619 48.9108385,6.38185714 C49.0790162,6.63328571 49.3183829,6.87185714 49.6289385,7.09757143 C49.9390162,7.32280952 50.3155051,7.5437619 50.7588829,7.75995238 C51.2022607,7.97661905 51.7029718,8.19995238 52.2619718,8.429 C53.0245051,8.74709524 53.7091607,9.08519048 54.3164162,9.44328571 C54.9236718,9.80090476 55.4444496,10.2056667 55.8792273,10.6561429 C56.3130496,11.106619 56.6455829,11.621381 56.8763496,12.1999524 C57.1066385,12.779 57.2222607,13.4528095 57.2222607,14.221381 C57.2222607,15.2818571 57.0201607,16.1718571 56.6169162,16.8923333 C56.2136718,17.6128095 55.6661385,18.1956667 54.974794,18.6418571 C54.2829718,19.0880476 53.478394,19.4085238 52.5610607,19.6028095 C51.6432496,19.796619 50.674794,19.8947143 49.6552162,19.8947143 C48.6088829,19.8947143 47.6141496,19.8056667 46.6700607,19.6294762 C45.725494,19.4528095 44.9080162,19.1875714 44.216194,18.8337619" id="Fill-1" fill="#030014"></path>
                    <path d="M67.0240151,19.4038571 C66.4033818,19.731 65.4678929,19.8943333 64.2180262,19.8943333 C61.2567596,19.8943333 59.776604,18.3614762 59.776604,15.2948095 L59.776604,9.07861905 L59.776604,5.99052381 L59.776604,2.46480952 L63.9652818,1.27195238 L63.9652818,5.99052381 L67.0240151,5.99052381 L67.0240151,9.07861905 L63.9652818,9.07861905 L63.9652818,14.5662381 C63.9652818,15.9800476 64.528104,16.6867143 65.6542262,16.6867143 C66.097604,16.6867143 66.5538818,16.558619 67.0240151,16.3024286 L67.0240151,19.4038571 Z" id="Fill-3" fill="#030014"></path>
                    <path d="M92.9292218,9.768 C92.4237329,9.49419048 91.8341551,9.35752381 91.1604885,9.35752381 C90.2474551,9.35752381 89.5336551,9.69085714 89.0195662,10.3575238 C88.5049996,11.0251429 88.2484329,11.9332381 88.2484329,13.0818095 L88.2484329,19.5627619 L84.0458996,19.5627619 L84.0458996,5.09514286 L88.2484329,5.09514286 L88.2484329,8.50847619 L88.3014662,8.50847619 C88.9665329,6.67085714 90.1628885,5.75180952 91.8919662,5.75180952 C92.335344,5.75180952 92.6807773,5.80514286 92.9292218,5.91085714 L92.9292218,9.768 Z" id="Fill-5" fill="#030014"></path>
                    <path d="M102.94483,19.4038571 C102.324196,19.731 101.388707,19.8943333 100.138841,19.8943333 C97.177574,19.8943333 95.6974185,18.3614762 95.6974185,15.2948095 L95.6974185,9.07861905 L95.6974185,5.99052381 L95.6974185,2.46480952 L99.8860962,1.27195238 L99.8860962,5.99052381 L102.94483,5.99052381 L102.94483,9.07861905 L99.8860962,9.07861905 L99.8860962,14.5662381 C99.8860962,15.9800476 100.448918,16.6867143 101.575041,16.6867143 C102.018418,16.6867143 102.474696,16.558619 102.94483,16.3024286 L102.94483,19.4038571 Z" id="Fill-7" fill="#030014"></path>
                    <path d="M128.823472,9.768 C128.317983,9.49419048 127.728405,9.35752381 127.054738,9.35752381 C126.141705,9.35752381 125.427905,9.69085714 124.913816,10.3575238 C124.39925,11.0251429 124.142683,11.9332381 124.142683,13.0818095 L124.142683,19.5627619 L119.94015,19.5627619 L119.94015,5.09514286 L124.142683,5.09514286 L124.142683,8.50847619 L124.195716,8.50847619 C124.860783,6.67085714 126.057138,5.75180952 127.786216,5.75180952 C128.229594,5.75180952 128.575027,5.80514286 128.823472,5.91085714 L128.823472,9.768 Z" id="Fill-9" fill="#030014"></path>
                    <path d="M7.19343526,0 L7.86498731,0.404345581 L13.1890407,10.5109524 L10.8491598,10.5109524 L6.3992229,2.06509524 L2.78913401,2.06509524 L10.7102118,17.1089048 L14.2491118,10.3874762 L9.41843044,1.21369428 L10.1540255,0 L20.6848314,0 L21.4204265,1.21369428 L16.5892673,10.3874762 L20.1281673,17.1089048 L28.0492451,2.06509524 L24.4386785,2.06509524 L19.9926143,10.5109524 L17.6518132,10.5109524 L22.9733933,0.404315285 L23.6454704,0 L30.1027311,0 L30.8388845,1.21364292 L20.876973,20.132381 L19.380319,20.132381 L15.4191896,12.609381 L11.4585457,20.132381 L9.96140286,20.132381 L0,1.2136895 L0.735592179,0 L7.19343526,0 Z M18.6308118,2.06509524 L12.2075673,2.06509524 L15.4191896,8.16509524 L18.6308118,2.06509524 Z" id="形状" fill="#00C57B"></path>
                    <path d="M74.8966462,5.65942857 C74.0634018,5.65942857 73.1389018,5.77419048 72.1241018,6.00419048 C71.108824,6.23371429 70.3085462,6.49895238 69.7237462,6.79942857 L69.7237462,9.95371429 C71.186224,8.99038095 72.7289685,8.50847619 74.3515018,8.50847619 C75.942024,8.50847619 76.7451685,9.23419048 76.767624,10.6770476 L76.771924,10.6770476 L76.771924,13.1346667 L76.771924,13.8722857 L76.771924,14.0489524 C76.771924,14.8794286 76.5234796,15.5670476 76.0270685,16.1099048 C75.5306573,16.6537143 74.8875685,16.9251429 74.0987573,16.9251429 C73.5311573,16.9251429 73.0815685,16.7727619 72.7490351,16.468 C72.4165018,16.1632381 72.2502351,15.7718095 72.2502351,15.2946667 C72.2502351,14.2432381 72.9329796,13.6294286 74.2984685,13.4527619 L75.4231573,13.2470476 L75.4231573,10.8508571 L73.0748796,11.225619 C69.9449573,11.6327619 68.3802351,13.1522857 68.3802351,15.785619 C68.3802351,17.0313333 68.7595907,18.028 69.5173462,18.7741905 C70.2755796,19.5208571 71.3147462,19.8946667 72.6358018,19.8946667 C74.4265129,19.8946667 75.778624,19.1346667 76.6921351,17.6141905 L76.7451685,17.6141905 L76.7451685,19.5627619 L80.7212351,19.5627619 L80.7212351,11.4513333 C80.7212351,7.58990476 78.7795462,5.65942857 74.8966462,5.65942857" id="Fill-19" fill="#030014"></path>
                    <path d="M42.181434,12.206619 C42.181434,10.1923333 41.6382007,8.59757143 40.5522118,7.42185714 C39.4662229,6.24661905 37.9301673,5.65947619 35.9445229,5.65947619 C34.0295896,5.65947619 32.416134,6.31757143 31.1036785,7.6337619 C29.7917007,8.95090476 29.1357118,10.7356667 29.1357118,12.989 C29.1357118,15.1623333 29.7429673,16.8570952 30.9574785,18.0718571 C32.1719896,19.286619 33.8786118,19.8947143 36.0773451,19.8947143 C38.0897451,19.8947143 39.7256562,19.5585238 40.9846007,18.886619 L40.9846007,15.8651905 C39.8498785,16.5718571 38.5331229,16.9251905 37.0348118,16.9251905 C34.6855785,16.9251905 33.4400118,15.9404286 33.2981118,13.9694762 C33.1070007,12.456619 33.2713562,11.3985238 33.2713562,11.3985238 C33.3779007,10.5680476 33.6769896,9.8742381 34.1691007,9.31757143 C34.6612118,8.76090476 35.2441007,8.48233333 35.9177673,8.48233333 C37.4958673,8.48233333 38.2851562,9.45471429 38.2851562,11.3985238 L34.6201229,11.3985238 L34.6201229,13.9694762 L42.181434,13.9694762 L42.181434,12.206619 Z" id="Fill-21" fill="#00C57B"></path>
                    <path d="M117.440082,12.206619 C117.440082,10.1923333 116.896848,8.59757143 115.81086,7.42185714 C114.724871,6.24661905 113.188815,5.65947619 111.203171,5.65947619 C109.288237,5.65947619 107.674782,6.31757143 106.362326,7.6337619 C105.050348,8.95090476 104.39436,10.7356667 104.39436,12.989 C104.39436,15.1623333 105.001615,16.8570952 106.216126,18.0718571 C107.430637,19.286619 109.13726,19.8947143 111.335993,19.8947143 C113.348393,19.8947143 114.984304,19.5585238 116.243248,18.886619 L116.243248,15.8651905 C115.108526,16.5718571 113.791771,16.9251905 112.29346,16.9251905 C109.944226,16.9251905 108.69866,15.9404286 108.55676,13.9694762 L108.556282,13.9694762 C108.365171,12.456619 108.530004,11.3985238 108.530004,11.3985238 L108.530004,11.3985238 C108.636548,10.5680476 108.935637,9.8742381 109.427748,9.31757143 C109.91986,8.76090476 110.502748,8.48233333 111.176415,8.48233333 C112.754515,8.48233333 113.543804,9.45471429 113.543804,11.3985238 L109.878771,11.3985238 L109.878771,13.9694762 L117.440082,13.9694762 L117.440082,12.206619 Z" id="Fill-23" fill="#030014"></path>
                </g>
            </g>
        </g>
    </g>
</svg>