<?xml version="1.0" encoding="UTF-8"?>
<svg width="24px" height="24px" viewBox="0 0 24 24" version="1.1" xmlns="http://www.w3.org/2000/svg" xmlns:xlink="http://www.w3.org/1999/xlink">
    <title>切片</title>
    <g id="页面-1" stroke="none" stroke-width="1" fill="none" fill-rule="evenodd">
        <g id="IWO_apply" transform="translate(-1012.000000, -376.000000)">
            <g id="medium-fill-(1)" transform="translate(1012.000000, 376.000000)">
                <polygon id="路径" points="0 0 24 0 24 24 0 24"></polygon>
                <path d="M4,3 L20,3 C20.5522847,3 21,3.44771525 21,4 L21,20 C21,20.5522847 20.5522847,21 20,21 L4,21 C3.44771525,21 3,20.5522847 3,20 L3,4 C3,3.44771525 3.44771525,3 4,3 Z M17.3,15.94 C17.2,15.89 17.15,15.74 17.15,15.639 L17.15,8.006 C17.15,7.906 17.2,7.756 17.3,7.655 L18.255,6.55 L18.255,6.5 L14.84,6.5 L12.28,12.978 L9.366,6.5 L5.852,6.5 L5.852,6.55 L6.755,7.806 C6.956,8.006 7.006,8.308 7.006,8.559 L7.006,14.082 C7.056,14.384 7.006,14.735 6.856,15.036 L5.5,16.894 L5.5,16.944 L9.116,16.944 L9.116,16.894 L7.76,15.087 C7.61,14.785 7.559,14.484 7.61,14.133 L7.61,9.11 C7.66,9.21 7.71,9.21 7.76,9.411 L11.174,17.044 L11.224,17.044 L14.54,8.76 C14.49,9.06 14.49,9.412 14.49,9.664 L14.49,15.589 C14.49,15.739 14.44,15.839 14.34,15.94 L13.335,16.894 L13.335,16.944 L18.256,16.944 L18.256,16.894 L17.302,15.94 L17.3,15.94 Z" id="形状" fill="#00C57B" fill-rule="nonzero"></path>
            </g>
        </g>
    </g>
</svg>