<?xml version="1.0" encoding="UTF-8"?>
<svg width="20px" height="20px" viewBox="0 0 20 20" version="1.1" xmlns="http://www.w3.org/2000/svg" xmlns:xlink="http://www.w3.org/1999/xlink">
    <title>war</title>
    <g id="war" stroke="none" stroke-width="1" fill="none" fill-rule="evenodd">
        <g id="编组-5" transform="translate(2.000000, 2.000000)">
            <circle id="椭圆形" fill="#0F8C20" cx="8" cy="8" r="8"></circle>
            <g id="编组-2" transform="translate(1.866667, 4.533333)" fill="#FFFFFF">
                <path d="M3.13130667,0.6 L3.23472308,0.628812834 L3.42440689,0.74340331 L3.49806719,0.821618244 L5.3624,4.3736 L5.42,4.264 L3.7746534,1.12891018 L4.09414996,0.6 L7.81070337,0.6 L8.13019993,1.12891018 L6.484,4.264 L6.5416,4.3744 L8.40660571,0.821652325 L8.4803488,0.743364126 L8.67019515,0.62877365 L8.77354667,0.6 L11.0146389,0.6 L11.3343653,1.12886704 L7.88085627,7.70931302 L7.22814328,7.70931302 L5.952,5.2776 L4.67671659,7.70931302 L4.02383179,7.70931302 L0.570511064,1.12890616 L0.890005203,0.6 L3.13130667,0.6 Z M2.8112,1.5416 L1.8512,1.5416 L4.3504,6.3024 L5.336,4.4248 L4.32586887,4.42519873 L2.8112,1.5416 Z M10.0528,1.5416 L9.0928,1.5416 L7.58000195,4.42519873 L6.568,4.4248 L7.5536,6.3024 L10.0528,1.5416 Z M6.8488,1.5416 L5.056,1.5416 L5.952,3.2504 L6.8488,1.5416 Z" id="形状"></path>
            </g>
        </g>
    </g>
</svg>